G04 #@! TF.GenerationSoftware,KiCad,Pcbnew,(5.1.4)-1*
G04 #@! TF.CreationDate,2020-12-07T13:54:22+02:00*
G04 #@! TF.ProjectId,TDA7491 OP AMP,54444137-3439-4312-904f-5020414d502e,rev?*
G04 #@! TF.SameCoordinates,Original*
G04 #@! TF.FileFunction,Legend,Top*
G04 #@! TF.FilePolarity,Positive*
%FSLAX46Y46*%
G04 Gerber Fmt 4.6, Leading zero omitted, Abs format (unit mm)*
G04 Created by KiCad (PCBNEW (5.1.4)-1) date 2020-12-07 13:54:22*
%MOMM*%
%LPD*%
G04 APERTURE LIST*
%ADD10C,0.150000*%
%ADD11C,0.120000*%
G04 APERTURE END LIST*
D10*
X144409523Y-63116666D02*
X144885714Y-63116666D01*
X144314285Y-63402380D02*
X144647619Y-62402380D01*
X144980952Y-63402380D01*
X145457142Y-63402380D02*
X145361904Y-63354761D01*
X145314285Y-63259523D01*
X145314285Y-62402380D01*
X146219047Y-63354761D02*
X146123809Y-63402380D01*
X145933333Y-63402380D01*
X145838095Y-63354761D01*
X145790476Y-63259523D01*
X145790476Y-62878571D01*
X145838095Y-62783333D01*
X145933333Y-62735714D01*
X146123809Y-62735714D01*
X146219047Y-62783333D01*
X146266666Y-62878571D01*
X146266666Y-62973809D01*
X145790476Y-63069047D01*
X146695238Y-63402380D02*
X146695238Y-62402380D01*
X146790476Y-63021428D02*
X147076190Y-63402380D01*
X147076190Y-62735714D02*
X146695238Y-63116666D01*
X147457142Y-63354761D02*
X147552380Y-63402380D01*
X147742857Y-63402380D01*
X147838095Y-63354761D01*
X147885714Y-63259523D01*
X147885714Y-63211904D01*
X147838095Y-63116666D01*
X147742857Y-63069047D01*
X147600000Y-63069047D01*
X147504761Y-63021428D01*
X147457142Y-62926190D01*
X147457142Y-62878571D01*
X147504761Y-62783333D01*
X147600000Y-62735714D01*
X147742857Y-62735714D01*
X147838095Y-62783333D01*
X148266666Y-63354761D02*
X148361904Y-63402380D01*
X148552380Y-63402380D01*
X148647619Y-63354761D01*
X148695238Y-63259523D01*
X148695238Y-63211904D01*
X148647619Y-63116666D01*
X148552380Y-63069047D01*
X148409523Y-63069047D01*
X148314285Y-63021428D01*
X148266666Y-62926190D01*
X148266666Y-62878571D01*
X148314285Y-62783333D01*
X148409523Y-62735714D01*
X148552380Y-62735714D01*
X148647619Y-62783333D01*
X150409523Y-62450000D02*
X150314285Y-62402380D01*
X150171428Y-62402380D01*
X150028571Y-62450000D01*
X149933333Y-62545238D01*
X149885714Y-62640476D01*
X149838095Y-62830952D01*
X149838095Y-62973809D01*
X149885714Y-63164285D01*
X149933333Y-63259523D01*
X150028571Y-63354761D01*
X150171428Y-63402380D01*
X150266666Y-63402380D01*
X150409523Y-63354761D01*
X150457142Y-63307142D01*
X150457142Y-62973809D01*
X150266666Y-62973809D01*
X151028571Y-63402380D02*
X150933333Y-63354761D01*
X150885714Y-63307142D01*
X150838095Y-63211904D01*
X150838095Y-62926190D01*
X150885714Y-62830952D01*
X150933333Y-62783333D01*
X151028571Y-62735714D01*
X151171428Y-62735714D01*
X151266666Y-62783333D01*
X151314285Y-62830952D01*
X151361904Y-62926190D01*
X151361904Y-63211904D01*
X151314285Y-63307142D01*
X151266666Y-63354761D01*
X151171428Y-63402380D01*
X151028571Y-63402380D01*
X151933333Y-63402380D02*
X151838095Y-63354761D01*
X151790476Y-63259523D01*
X151790476Y-62402380D01*
X152457142Y-63402380D02*
X152361904Y-63354761D01*
X152314285Y-63307142D01*
X152266666Y-63211904D01*
X152266666Y-62926190D01*
X152314285Y-62830952D01*
X152361904Y-62783333D01*
X152457142Y-62735714D01*
X152600000Y-62735714D01*
X152695238Y-62783333D01*
X152742857Y-62830952D01*
X152790476Y-62926190D01*
X152790476Y-63211904D01*
X152742857Y-63307142D01*
X152695238Y-63354761D01*
X152600000Y-63402380D01*
X152457142Y-63402380D01*
X153123809Y-62735714D02*
X153361904Y-63402380D01*
X153600000Y-62735714D01*
X154409523Y-63354761D02*
X154314285Y-63402380D01*
X154123809Y-63402380D01*
X154028571Y-63354761D01*
X153980952Y-63307142D01*
X153933333Y-63211904D01*
X153933333Y-62926190D01*
X153980952Y-62830952D01*
X154028571Y-62783333D01*
X154123809Y-62735714D01*
X154314285Y-62735714D01*
X154409523Y-62783333D01*
X154028571Y-62354761D02*
X154219047Y-62497619D01*
X154409523Y-62354761D01*
X155219047Y-63354761D02*
X155123809Y-63402380D01*
X154933333Y-63402380D01*
X154838095Y-63354761D01*
X154790476Y-63259523D01*
X154790476Y-62878571D01*
X154838095Y-62783333D01*
X154933333Y-62735714D01*
X155123809Y-62735714D01*
X155219047Y-62783333D01*
X155266666Y-62878571D01*
X155266666Y-62973809D01*
X154790476Y-63069047D01*
X155695238Y-62735714D02*
X155695238Y-63402380D01*
X155695238Y-62830952D02*
X155742857Y-62783333D01*
X155838095Y-62735714D01*
X155980952Y-62735714D01*
X156076190Y-62783333D01*
X156123809Y-62878571D01*
X156123809Y-63402380D01*
X156600000Y-63402380D02*
X156600000Y-62402380D01*
X156695238Y-63021428D02*
X156980952Y-63402380D01*
X156980952Y-62735714D02*
X156600000Y-63116666D01*
X157552380Y-63402380D02*
X157457142Y-63354761D01*
X157409523Y-63307142D01*
X157361904Y-63211904D01*
X157361904Y-62926190D01*
X157409523Y-62830952D01*
X157457142Y-62783333D01*
X157552380Y-62735714D01*
X157695238Y-62735714D01*
X157790476Y-62783333D01*
X157838095Y-62830952D01*
X157885714Y-62926190D01*
X157885714Y-63211904D01*
X157838095Y-63307142D01*
X157790476Y-63354761D01*
X157695238Y-63402380D01*
X157552380Y-63402380D01*
X159028571Y-62497619D02*
X159076190Y-62450000D01*
X159171428Y-62402380D01*
X159409523Y-62402380D01*
X159504761Y-62450000D01*
X159552380Y-62497619D01*
X159600000Y-62592857D01*
X159600000Y-62688095D01*
X159552380Y-62830952D01*
X158980952Y-63402380D01*
X159600000Y-63402380D01*
X160219047Y-62402380D02*
X160314285Y-62402380D01*
X160409523Y-62450000D01*
X160457142Y-62497619D01*
X160504761Y-62592857D01*
X160552380Y-62783333D01*
X160552380Y-63021428D01*
X160504761Y-63211904D01*
X160457142Y-63307142D01*
X160409523Y-63354761D01*
X160314285Y-63402380D01*
X160219047Y-63402380D01*
X160123809Y-63354761D01*
X160076190Y-63307142D01*
X160028571Y-63211904D01*
X159980952Y-63021428D01*
X159980952Y-62783333D01*
X160028571Y-62592857D01*
X160076190Y-62497619D01*
X160123809Y-62450000D01*
X160219047Y-62402380D01*
X160933333Y-62497619D02*
X160980952Y-62450000D01*
X161076190Y-62402380D01*
X161314285Y-62402380D01*
X161409523Y-62450000D01*
X161457142Y-62497619D01*
X161504761Y-62592857D01*
X161504761Y-62688095D01*
X161457142Y-62830952D01*
X160885714Y-63402380D01*
X161504761Y-63402380D01*
X162123809Y-62402380D02*
X162219047Y-62402380D01*
X162314285Y-62450000D01*
X162361904Y-62497619D01*
X162409523Y-62592857D01*
X162457142Y-62783333D01*
X162457142Y-63021428D01*
X162409523Y-63211904D01*
X162361904Y-63307142D01*
X162314285Y-63354761D01*
X162219047Y-63402380D01*
X162123809Y-63402380D01*
X162028571Y-63354761D01*
X161980952Y-63307142D01*
X161933333Y-63211904D01*
X161885714Y-63021428D01*
X161885714Y-62783333D01*
X161933333Y-62592857D01*
X161980952Y-62497619D01*
X162028571Y-62450000D01*
X162123809Y-62402380D01*
X163647619Y-62878571D02*
X163980952Y-62878571D01*
X164123809Y-63402380D02*
X163647619Y-63402380D01*
X163647619Y-62402380D01*
X164123809Y-62402380D01*
X164552380Y-63402380D02*
X164552380Y-62402380D01*
X165028571Y-63402380D02*
X165028571Y-62402380D01*
X165409523Y-62402380D01*
X165504761Y-62450000D01*
X165552380Y-62497619D01*
X165600000Y-62592857D01*
X165600000Y-62735714D01*
X165552380Y-62830952D01*
X165504761Y-62878571D01*
X165409523Y-62926190D01*
X165028571Y-62926190D01*
X166790476Y-63402380D02*
X166790476Y-62402380D01*
X167266666Y-63402380D02*
X167266666Y-62402380D01*
X167742857Y-63402380D02*
X167742857Y-62402380D01*
X97052380Y-82130952D02*
X96576190Y-82464285D01*
X97052380Y-82702380D02*
X96052380Y-82702380D01*
X96052380Y-82321428D01*
X96100000Y-82226190D01*
X96147619Y-82178571D01*
X96242857Y-82130952D01*
X96385714Y-82130952D01*
X96480952Y-82178571D01*
X96528571Y-82226190D01*
X96576190Y-82321428D01*
X96576190Y-82702380D01*
X97052380Y-81702380D02*
X96385714Y-81702380D01*
X96052380Y-81702380D02*
X96100000Y-81750000D01*
X96147619Y-81702380D01*
X96100000Y-81654761D01*
X96052380Y-81702380D01*
X96147619Y-81702380D01*
X96385714Y-80797619D02*
X97195238Y-80797619D01*
X97290476Y-80845238D01*
X97338095Y-80892857D01*
X97385714Y-80988095D01*
X97385714Y-81130952D01*
X97338095Y-81226190D01*
X97004761Y-80797619D02*
X97052380Y-80892857D01*
X97052380Y-81083333D01*
X97004761Y-81178571D01*
X96957142Y-81226190D01*
X96861904Y-81273809D01*
X96576190Y-81273809D01*
X96480952Y-81226190D01*
X96433333Y-81178571D01*
X96385714Y-81083333D01*
X96385714Y-80892857D01*
X96433333Y-80797619D01*
X97052380Y-80321428D02*
X96052380Y-80321428D01*
X97052380Y-79892857D02*
X96528571Y-79892857D01*
X96433333Y-79940476D01*
X96385714Y-80035714D01*
X96385714Y-80178571D01*
X96433333Y-80273809D01*
X96480952Y-80321428D01*
X96385714Y-79559523D02*
X96385714Y-79178571D01*
X96052380Y-79416666D02*
X96909523Y-79416666D01*
X97004761Y-79369047D01*
X97052380Y-79273809D01*
X97052380Y-79178571D01*
X97052380Y-77940476D02*
X97004761Y-78035714D01*
X96957142Y-78083333D01*
X96861904Y-78130952D01*
X96576190Y-78130952D01*
X96480952Y-78083333D01*
X96433333Y-78035714D01*
X96385714Y-77940476D01*
X96385714Y-77797619D01*
X96433333Y-77702380D01*
X96480952Y-77654761D01*
X96576190Y-77607142D01*
X96861904Y-77607142D01*
X96957142Y-77654761D01*
X97004761Y-77702380D01*
X97052380Y-77797619D01*
X97052380Y-77940476D01*
X96385714Y-76750000D02*
X97052380Y-76750000D01*
X96385714Y-77178571D02*
X96909523Y-77178571D01*
X97004761Y-77130952D01*
X97052380Y-77035714D01*
X97052380Y-76892857D01*
X97004761Y-76797619D01*
X96957142Y-76750000D01*
X96385714Y-76416666D02*
X96385714Y-76035714D01*
X96052380Y-76273809D02*
X96909523Y-76273809D01*
X97004761Y-76226190D01*
X97052380Y-76130952D01*
X97052380Y-76035714D01*
X96385714Y-75702380D02*
X97385714Y-75702380D01*
X96433333Y-75702380D02*
X96385714Y-75607142D01*
X96385714Y-75416666D01*
X96433333Y-75321428D01*
X96480952Y-75273809D01*
X96576190Y-75226190D01*
X96861904Y-75226190D01*
X96957142Y-75273809D01*
X97004761Y-75321428D01*
X97052380Y-75416666D01*
X97052380Y-75607142D01*
X97004761Y-75702380D01*
X96385714Y-74369047D02*
X97052380Y-74369047D01*
X96385714Y-74797619D02*
X96909523Y-74797619D01*
X97004761Y-74750000D01*
X97052380Y-74654761D01*
X97052380Y-74511904D01*
X97004761Y-74416666D01*
X96957142Y-74369047D01*
X96385714Y-74035714D02*
X96385714Y-73654761D01*
X96052380Y-73892857D02*
X96909523Y-73892857D01*
X97004761Y-73845238D01*
X97052380Y-73750000D01*
X97052380Y-73654761D01*
X97552380Y-99276190D02*
X96552380Y-99276190D01*
X96552380Y-98895238D01*
X96600000Y-98800000D01*
X96647619Y-98752380D01*
X96742857Y-98704761D01*
X96885714Y-98704761D01*
X96980952Y-98752380D01*
X97028571Y-98800000D01*
X97076190Y-98895238D01*
X97076190Y-99276190D01*
X97552380Y-98133333D02*
X97504761Y-98228571D01*
X97457142Y-98276190D01*
X97361904Y-98323809D01*
X97076190Y-98323809D01*
X96980952Y-98276190D01*
X96933333Y-98228571D01*
X96885714Y-98133333D01*
X96885714Y-97990476D01*
X96933333Y-97895238D01*
X96980952Y-97847619D01*
X97076190Y-97800000D01*
X97361904Y-97800000D01*
X97457142Y-97847619D01*
X97504761Y-97895238D01*
X97552380Y-97990476D01*
X97552380Y-98133333D01*
X96885714Y-97466666D02*
X97552380Y-97276190D01*
X97076190Y-97085714D01*
X97552380Y-96895238D01*
X96885714Y-96704761D01*
X97504761Y-95942857D02*
X97552380Y-96038095D01*
X97552380Y-96228571D01*
X97504761Y-96323809D01*
X97409523Y-96371428D01*
X97028571Y-96371428D01*
X96933333Y-96323809D01*
X96885714Y-96228571D01*
X96885714Y-96038095D01*
X96933333Y-95942857D01*
X97028571Y-95895238D01*
X97123809Y-95895238D01*
X97219047Y-96371428D01*
X97552380Y-95466666D02*
X96885714Y-95466666D01*
X97076190Y-95466666D02*
X96980952Y-95419047D01*
X96933333Y-95371428D01*
X96885714Y-95276190D01*
X96885714Y-95180952D01*
X110654761Y-123754761D02*
X110797619Y-123802380D01*
X111035714Y-123802380D01*
X111130952Y-123754761D01*
X111178571Y-123707142D01*
X111226190Y-123611904D01*
X111226190Y-123516666D01*
X111178571Y-123421428D01*
X111130952Y-123373809D01*
X111035714Y-123326190D01*
X110845238Y-123278571D01*
X110750000Y-123230952D01*
X110702380Y-123183333D01*
X110654761Y-123088095D01*
X110654761Y-122992857D01*
X110702380Y-122897619D01*
X110750000Y-122850000D01*
X110845238Y-122802380D01*
X111083333Y-122802380D01*
X111226190Y-122850000D01*
X111511904Y-122802380D02*
X112083333Y-122802380D01*
X111797619Y-123802380D02*
X111797619Y-122802380D01*
X112750000Y-123278571D02*
X112892857Y-123326190D01*
X112940476Y-123373809D01*
X112988095Y-123469047D01*
X112988095Y-123611904D01*
X112940476Y-123707142D01*
X112892857Y-123754761D01*
X112797619Y-123802380D01*
X112416666Y-123802380D01*
X112416666Y-122802380D01*
X112750000Y-122802380D01*
X112845238Y-122850000D01*
X112892857Y-122897619D01*
X112940476Y-122992857D01*
X112940476Y-123088095D01*
X112892857Y-123183333D01*
X112845238Y-123230952D01*
X112750000Y-123278571D01*
X112416666Y-123278571D01*
X113607142Y-123326190D02*
X113607142Y-123802380D01*
X113273809Y-122802380D02*
X113607142Y-123326190D01*
X113940476Y-122802380D01*
X105509523Y-124052380D02*
X105509523Y-123052380D01*
X105842857Y-123766666D01*
X106176190Y-123052380D01*
X106176190Y-124052380D01*
X106652380Y-123052380D02*
X106652380Y-123861904D01*
X106700000Y-123957142D01*
X106747619Y-124004761D01*
X106842857Y-124052380D01*
X107033333Y-124052380D01*
X107128571Y-124004761D01*
X107176190Y-123957142D01*
X107223809Y-123861904D01*
X107223809Y-123052380D01*
X107557142Y-123052380D02*
X108128571Y-123052380D01*
X107842857Y-124052380D02*
X107842857Y-123052380D01*
X108461904Y-123528571D02*
X108795238Y-123528571D01*
X108938095Y-124052380D02*
X108461904Y-124052380D01*
X108461904Y-123052380D01*
X108938095Y-123052380D01*
X97602380Y-120502380D02*
X97602380Y-120978571D01*
X96602380Y-120978571D01*
X97554761Y-119788095D02*
X97602380Y-119883333D01*
X97602380Y-120073809D01*
X97554761Y-120169047D01*
X97459523Y-120216666D01*
X97078571Y-120216666D01*
X96983333Y-120169047D01*
X96935714Y-120073809D01*
X96935714Y-119883333D01*
X96983333Y-119788095D01*
X97078571Y-119740476D01*
X97173809Y-119740476D01*
X97269047Y-120216666D01*
X96935714Y-119454761D02*
X96935714Y-119073809D01*
X97602380Y-119311904D02*
X96745238Y-119311904D01*
X96650000Y-119264285D01*
X96602380Y-119169047D01*
X96602380Y-119073809D01*
X96935714Y-118883333D02*
X96935714Y-118502380D01*
X96602380Y-118740476D02*
X97459523Y-118740476D01*
X97554761Y-118692857D01*
X97602380Y-118597619D01*
X97602380Y-118502380D01*
X97602380Y-117264285D02*
X97554761Y-117359523D01*
X97507142Y-117407142D01*
X97411904Y-117454761D01*
X97126190Y-117454761D01*
X97030952Y-117407142D01*
X96983333Y-117359523D01*
X96935714Y-117264285D01*
X96935714Y-117121428D01*
X96983333Y-117026190D01*
X97030952Y-116978571D01*
X97126190Y-116930952D01*
X97411904Y-116930952D01*
X97507142Y-116978571D01*
X97554761Y-117026190D01*
X97602380Y-117121428D01*
X97602380Y-117264285D01*
X96935714Y-116073809D02*
X97602380Y-116073809D01*
X96935714Y-116502380D02*
X97459523Y-116502380D01*
X97554761Y-116454761D01*
X97602380Y-116359523D01*
X97602380Y-116216666D01*
X97554761Y-116121428D01*
X97507142Y-116073809D01*
X96935714Y-115740476D02*
X96935714Y-115359523D01*
X96602380Y-115597619D02*
X97459523Y-115597619D01*
X97554761Y-115550000D01*
X97602380Y-115454761D01*
X97602380Y-115359523D01*
X96935714Y-115026190D02*
X97935714Y-115026190D01*
X96983333Y-115026190D02*
X96935714Y-114930952D01*
X96935714Y-114740476D01*
X96983333Y-114645238D01*
X97030952Y-114597619D01*
X97126190Y-114550000D01*
X97411904Y-114550000D01*
X97507142Y-114597619D01*
X97554761Y-114645238D01*
X97602380Y-114740476D01*
X97602380Y-114930952D01*
X97554761Y-115026190D01*
X96935714Y-113692857D02*
X97602380Y-113692857D01*
X96935714Y-114121428D02*
X97459523Y-114121428D01*
X97554761Y-114073809D01*
X97602380Y-113978571D01*
X97602380Y-113835714D01*
X97554761Y-113740476D01*
X97507142Y-113692857D01*
X96935714Y-113359523D02*
X96935714Y-112978571D01*
X96602380Y-113216666D02*
X97459523Y-113216666D01*
X97554761Y-113169047D01*
X97602380Y-113073809D01*
X97602380Y-112978571D01*
X141245238Y-146278571D02*
X141388095Y-146326190D01*
X141435714Y-146373809D01*
X141483333Y-146469047D01*
X141483333Y-146611904D01*
X141435714Y-146707142D01*
X141388095Y-146754761D01*
X141292857Y-146802380D01*
X140911904Y-146802380D01*
X140911904Y-145802380D01*
X141245238Y-145802380D01*
X141340476Y-145850000D01*
X141388095Y-145897619D01*
X141435714Y-145992857D01*
X141435714Y-146088095D01*
X141388095Y-146183333D01*
X141340476Y-146230952D01*
X141245238Y-146278571D01*
X140911904Y-146278571D01*
X142340476Y-146802380D02*
X142340476Y-146278571D01*
X142292857Y-146183333D01*
X142197619Y-146135714D01*
X142007142Y-146135714D01*
X141911904Y-146183333D01*
X142340476Y-146754761D02*
X142245238Y-146802380D01*
X142007142Y-146802380D01*
X141911904Y-146754761D01*
X141864285Y-146659523D01*
X141864285Y-146564285D01*
X141911904Y-146469047D01*
X142007142Y-146421428D01*
X142245238Y-146421428D01*
X142340476Y-146373809D01*
X142816666Y-146802380D02*
X142816666Y-146135714D01*
X142816666Y-146326190D02*
X142864285Y-146230952D01*
X142911904Y-146183333D01*
X143007142Y-146135714D01*
X143102380Y-146135714D01*
X143578571Y-146802380D02*
X143483333Y-146754761D01*
X143435714Y-146707142D01*
X143388095Y-146611904D01*
X143388095Y-146326190D01*
X143435714Y-146230952D01*
X143483333Y-146183333D01*
X143578571Y-146135714D01*
X143721428Y-146135714D01*
X143816666Y-146183333D01*
X143864285Y-146230952D01*
X143911904Y-146326190D01*
X143911904Y-146611904D01*
X143864285Y-146707142D01*
X143816666Y-146754761D01*
X143721428Y-146802380D01*
X143578571Y-146802380D01*
X144292857Y-146754761D02*
X144388095Y-146802380D01*
X144578571Y-146802380D01*
X144673809Y-146754761D01*
X144721428Y-146659523D01*
X144721428Y-146611904D01*
X144673809Y-146516666D01*
X144578571Y-146469047D01*
X144435714Y-146469047D01*
X144340476Y-146421428D01*
X144292857Y-146326190D01*
X144292857Y-146278571D01*
X144340476Y-146183333D01*
X144435714Y-146135714D01*
X144578571Y-146135714D01*
X144673809Y-146183333D01*
X144292857Y-145754761D02*
X144483333Y-145897619D01*
X144673809Y-145754761D01*
X145578571Y-146802380D02*
X145578571Y-146278571D01*
X145530952Y-146183333D01*
X145435714Y-146135714D01*
X145245238Y-146135714D01*
X145150000Y-146183333D01*
X145578571Y-146754761D02*
X145483333Y-146802380D01*
X145245238Y-146802380D01*
X145150000Y-146754761D01*
X145102380Y-146659523D01*
X145102380Y-146564285D01*
X145150000Y-146469047D01*
X145245238Y-146421428D01*
X145483333Y-146421428D01*
X145578571Y-146373809D01*
X146054761Y-146135714D02*
X146054761Y-146802380D01*
X146054761Y-146230952D02*
X146102380Y-146183333D01*
X146197619Y-146135714D01*
X146340476Y-146135714D01*
X146435714Y-146183333D01*
X146483333Y-146278571D01*
X146483333Y-146802380D01*
X147388095Y-146802380D02*
X147388095Y-146278571D01*
X147340476Y-146183333D01*
X147245238Y-146135714D01*
X147054761Y-146135714D01*
X146959523Y-146183333D01*
X147388095Y-146754761D02*
X147292857Y-146802380D01*
X147054761Y-146802380D01*
X146959523Y-146754761D01*
X146911904Y-146659523D01*
X146911904Y-146564285D01*
X146959523Y-146469047D01*
X147054761Y-146421428D01*
X147292857Y-146421428D01*
X147388095Y-146373809D01*
X177754761Y-140752380D02*
X177421428Y-140276190D01*
X177183333Y-140752380D02*
X177183333Y-139752380D01*
X177564285Y-139752380D01*
X177659523Y-139800000D01*
X177707142Y-139847619D01*
X177754761Y-139942857D01*
X177754761Y-140085714D01*
X177707142Y-140180952D01*
X177659523Y-140228571D01*
X177564285Y-140276190D01*
X177183333Y-140276190D01*
X178088095Y-140752380D02*
X178611904Y-140085714D01*
X178088095Y-140085714D02*
X178611904Y-140752380D01*
X172709523Y-139902380D02*
X173280952Y-139902380D01*
X172995238Y-140902380D02*
X172995238Y-139902380D01*
X173519047Y-140902380D02*
X174042857Y-140235714D01*
X173519047Y-140235714D02*
X174042857Y-140902380D01*
X184204761Y-95242857D02*
X184252380Y-95100000D01*
X184252380Y-94861904D01*
X184204761Y-94766666D01*
X184157142Y-94719047D01*
X184061904Y-94671428D01*
X183966666Y-94671428D01*
X183871428Y-94719047D01*
X183823809Y-94766666D01*
X183776190Y-94861904D01*
X183728571Y-95052380D01*
X183680952Y-95147619D01*
X183633333Y-95195238D01*
X183538095Y-95242857D01*
X183442857Y-95242857D01*
X183347619Y-95195238D01*
X183300000Y-95147619D01*
X183252380Y-95052380D01*
X183252380Y-94814285D01*
X183300000Y-94671428D01*
X184252380Y-94242857D02*
X183585714Y-94242857D01*
X183252380Y-94242857D02*
X183300000Y-94290476D01*
X183347619Y-94242857D01*
X183300000Y-94195238D01*
X183252380Y-94242857D01*
X183347619Y-94242857D01*
X183585714Y-93338095D02*
X184395238Y-93338095D01*
X184490476Y-93385714D01*
X184538095Y-93433333D01*
X184585714Y-93528571D01*
X184585714Y-93671428D01*
X184538095Y-93766666D01*
X184204761Y-93338095D02*
X184252380Y-93433333D01*
X184252380Y-93623809D01*
X184204761Y-93719047D01*
X184157142Y-93766666D01*
X184061904Y-93814285D01*
X183776190Y-93814285D01*
X183680952Y-93766666D01*
X183633333Y-93719047D01*
X183585714Y-93623809D01*
X183585714Y-93433333D01*
X183633333Y-93338095D01*
X183585714Y-92861904D02*
X184252380Y-92861904D01*
X183680952Y-92861904D02*
X183633333Y-92814285D01*
X183585714Y-92719047D01*
X183585714Y-92576190D01*
X183633333Y-92480952D01*
X183728571Y-92433333D01*
X184252380Y-92433333D01*
X184252380Y-91528571D02*
X183728571Y-91528571D01*
X183633333Y-91576190D01*
X183585714Y-91671428D01*
X183585714Y-91861904D01*
X183633333Y-91957142D01*
X184204761Y-91528571D02*
X184252380Y-91623809D01*
X184252380Y-91861904D01*
X184204761Y-91957142D01*
X184109523Y-92004761D01*
X184014285Y-92004761D01*
X183919047Y-91957142D01*
X183871428Y-91861904D01*
X183871428Y-91623809D01*
X183823809Y-91528571D01*
X184252380Y-90909523D02*
X184204761Y-91004761D01*
X184109523Y-91052380D01*
X183252380Y-91052380D01*
D11*
X130390800Y-90758800D02*
X130390800Y-99953600D01*
X130390800Y-99953600D02*
X138976000Y-99953600D01*
X138976000Y-90758800D02*
X130390800Y-90758800D01*
X138976000Y-99953600D02*
X138976000Y-90758800D01*
X174946000Y-100270000D02*
X176276000Y-100270000D01*
X174946000Y-101600000D02*
X174946000Y-100270000D01*
X174946000Y-102870000D02*
X177606000Y-102870000D01*
X177606000Y-102870000D02*
X177606000Y-102930000D01*
X174946000Y-102870000D02*
X174946000Y-102930000D01*
X174946000Y-102930000D02*
X177606000Y-102930000D01*
X172152000Y-141672000D02*
X173482000Y-141672000D01*
X172152000Y-143002000D02*
X172152000Y-141672000D01*
X172152000Y-144272000D02*
X174812000Y-144272000D01*
X174812000Y-144272000D02*
X174812000Y-144332000D01*
X172152000Y-144272000D02*
X172152000Y-144332000D01*
X172152000Y-144332000D02*
X174812000Y-144332000D01*
X176570000Y-141820000D02*
X177900000Y-141820000D01*
X176570000Y-143150000D02*
X176570000Y-141820000D01*
X176570000Y-144420000D02*
X179230000Y-144420000D01*
X179230000Y-144420000D02*
X179230000Y-144480000D01*
X176570000Y-144420000D02*
X176570000Y-144480000D01*
X176570000Y-144480000D02*
X179230000Y-144480000D01*
X105858000Y-124654000D02*
X107188000Y-124654000D01*
X105858000Y-125984000D02*
X105858000Y-124654000D01*
X105858000Y-127254000D02*
X108518000Y-127254000D01*
X108518000Y-127254000D02*
X108518000Y-127314000D01*
X105858000Y-127254000D02*
X105858000Y-127314000D01*
X105858000Y-127314000D02*
X108518000Y-127314000D01*
X110938000Y-124474000D02*
X112268000Y-124474000D01*
X110938000Y-125804000D02*
X110938000Y-124474000D01*
X110938000Y-127074000D02*
X113598000Y-127074000D01*
X113598000Y-127074000D02*
X113598000Y-127134000D01*
X110938000Y-127074000D02*
X110938000Y-127134000D01*
X110938000Y-127134000D02*
X113598000Y-127134000D01*
X142434000Y-142688000D02*
X143764000Y-142688000D01*
X142434000Y-144018000D02*
X142434000Y-142688000D01*
X142434000Y-145288000D02*
X145094000Y-145288000D01*
X145094000Y-145288000D02*
X145094000Y-145348000D01*
X142434000Y-145288000D02*
X142434000Y-145348000D01*
X142434000Y-145348000D02*
X145094000Y-145348000D01*
X104320000Y-84850000D02*
X105650000Y-84850000D01*
X104320000Y-86180000D02*
X104320000Y-84850000D01*
X104320000Y-87450000D02*
X106980000Y-87450000D01*
X106980000Y-87450000D02*
X106980000Y-87510000D01*
X104320000Y-87450000D02*
X104320000Y-87510000D01*
X104320000Y-87510000D02*
X106980000Y-87510000D01*
X104080000Y-68266000D02*
X105410000Y-68266000D01*
X104080000Y-69596000D02*
X104080000Y-68266000D01*
X104080000Y-70866000D02*
X106740000Y-70866000D01*
X106740000Y-70866000D02*
X106740000Y-70926000D01*
X104080000Y-70866000D02*
X104080000Y-70926000D01*
X104080000Y-70926000D02*
X106740000Y-70926000D01*
X100778000Y-124474000D02*
X102108000Y-124474000D01*
X100778000Y-125804000D02*
X100778000Y-124474000D01*
X100778000Y-127074000D02*
X103438000Y-127074000D01*
X103438000Y-127074000D02*
X103438000Y-127134000D01*
X100778000Y-127074000D02*
X100778000Y-127134000D01*
X100778000Y-127134000D02*
X103438000Y-127134000D01*
X104066000Y-108726000D02*
X105396000Y-108726000D01*
X104066000Y-110056000D02*
X104066000Y-108726000D01*
X104066000Y-111326000D02*
X106726000Y-111326000D01*
X106726000Y-111326000D02*
X106726000Y-111386000D01*
X104066000Y-111326000D02*
X104066000Y-111386000D01*
X104066000Y-111386000D02*
X106726000Y-111386000D01*
X174932000Y-82818000D02*
X176262000Y-82818000D01*
X174932000Y-84148000D02*
X174932000Y-82818000D01*
X174932000Y-85418000D02*
X177592000Y-85418000D01*
X177592000Y-85418000D02*
X177592000Y-85478000D01*
X174932000Y-85418000D02*
X174932000Y-85478000D01*
X174932000Y-85478000D02*
X177592000Y-85478000D01*
X116981000Y-98229646D02*
X117981000Y-98229646D01*
X117481000Y-98729646D02*
X117481000Y-97729646D01*
X119757000Y-88169000D02*
X120955000Y-88169000D01*
X119494000Y-88209000D02*
X121218000Y-88209000D01*
X119294000Y-88249000D02*
X121418000Y-88249000D01*
X119126000Y-88289000D02*
X121586000Y-88289000D01*
X118978000Y-88329000D02*
X121734000Y-88329000D01*
X118846000Y-88369000D02*
X121866000Y-88369000D01*
X118726000Y-88409000D02*
X121986000Y-88409000D01*
X118614000Y-88449000D02*
X122098000Y-88449000D01*
X118510000Y-88489000D02*
X122202000Y-88489000D01*
X118412000Y-88529000D02*
X122300000Y-88529000D01*
X118319000Y-88569000D02*
X122393000Y-88569000D01*
X118231000Y-88609000D02*
X122481000Y-88609000D01*
X118147000Y-88649000D02*
X122565000Y-88649000D01*
X118067000Y-88689000D02*
X122645000Y-88689000D01*
X117991000Y-88729000D02*
X122721000Y-88729000D01*
X117917000Y-88769000D02*
X122795000Y-88769000D01*
X117846000Y-88809000D02*
X122866000Y-88809000D01*
X117777000Y-88849000D02*
X122935000Y-88849000D01*
X117711000Y-88889000D02*
X123001000Y-88889000D01*
X117647000Y-88929000D02*
X123065000Y-88929000D01*
X117586000Y-88969000D02*
X123126000Y-88969000D01*
X117526000Y-89009000D02*
X123186000Y-89009000D01*
X117467000Y-89049000D02*
X123245000Y-89049000D01*
X117411000Y-89089000D02*
X123301000Y-89089000D01*
X117356000Y-89129000D02*
X123356000Y-89129000D01*
X117302000Y-89169000D02*
X123410000Y-89169000D01*
X117250000Y-89209000D02*
X123462000Y-89209000D01*
X117200000Y-89249000D02*
X123512000Y-89249000D01*
X117150000Y-89289000D02*
X123562000Y-89289000D01*
X117102000Y-89329000D02*
X123610000Y-89329000D01*
X117055000Y-89369000D02*
X123657000Y-89369000D01*
X117009000Y-89409000D02*
X123703000Y-89409000D01*
X116964000Y-89449000D02*
X123748000Y-89449000D01*
X116920000Y-89489000D02*
X123792000Y-89489000D01*
X121597000Y-89529000D02*
X123834000Y-89529000D01*
X116878000Y-89529000D02*
X119115000Y-89529000D01*
X121597000Y-89569000D02*
X123876000Y-89569000D01*
X116836000Y-89569000D02*
X119115000Y-89569000D01*
X121597000Y-89609000D02*
X123917000Y-89609000D01*
X116795000Y-89609000D02*
X119115000Y-89609000D01*
X121597000Y-89649000D02*
X123957000Y-89649000D01*
X116755000Y-89649000D02*
X119115000Y-89649000D01*
X121597000Y-89689000D02*
X123996000Y-89689000D01*
X116716000Y-89689000D02*
X119115000Y-89689000D01*
X121597000Y-89729000D02*
X124035000Y-89729000D01*
X116677000Y-89729000D02*
X119115000Y-89729000D01*
X121597000Y-89769000D02*
X124072000Y-89769000D01*
X116640000Y-89769000D02*
X119115000Y-89769000D01*
X121597000Y-89809000D02*
X124109000Y-89809000D01*
X116603000Y-89809000D02*
X119115000Y-89809000D01*
X121597000Y-89849000D02*
X124145000Y-89849000D01*
X116567000Y-89849000D02*
X119115000Y-89849000D01*
X121597000Y-89889000D02*
X124180000Y-89889000D01*
X116532000Y-89889000D02*
X119115000Y-89889000D01*
X121597000Y-89929000D02*
X124214000Y-89929000D01*
X116498000Y-89929000D02*
X119115000Y-89929000D01*
X121597000Y-89969000D02*
X124248000Y-89969000D01*
X116464000Y-89969000D02*
X119115000Y-89969000D01*
X121597000Y-90009000D02*
X124281000Y-90009000D01*
X116431000Y-90009000D02*
X119115000Y-90009000D01*
X121597000Y-90049000D02*
X124313000Y-90049000D01*
X116399000Y-90049000D02*
X119115000Y-90049000D01*
X121597000Y-90089000D02*
X124345000Y-90089000D01*
X116367000Y-90089000D02*
X119115000Y-90089000D01*
X121597000Y-90129000D02*
X124376000Y-90129000D01*
X116336000Y-90129000D02*
X119115000Y-90129000D01*
X121597000Y-90169000D02*
X124406000Y-90169000D01*
X116306000Y-90169000D02*
X119115000Y-90169000D01*
X121597000Y-90209000D02*
X124436000Y-90209000D01*
X116276000Y-90209000D02*
X119115000Y-90209000D01*
X121597000Y-90249000D02*
X124466000Y-90249000D01*
X116246000Y-90249000D02*
X119115000Y-90249000D01*
X121597000Y-90289000D02*
X124494000Y-90289000D01*
X116218000Y-90289000D02*
X119115000Y-90289000D01*
X121597000Y-90329000D02*
X124522000Y-90329000D01*
X116190000Y-90329000D02*
X119115000Y-90329000D01*
X121597000Y-90369000D02*
X124550000Y-90369000D01*
X116162000Y-90369000D02*
X119115000Y-90369000D01*
X121597000Y-90409000D02*
X124577000Y-90409000D01*
X116135000Y-90409000D02*
X119115000Y-90409000D01*
X121597000Y-90449000D02*
X124603000Y-90449000D01*
X116109000Y-90449000D02*
X119115000Y-90449000D01*
X121597000Y-90489000D02*
X124629000Y-90489000D01*
X116083000Y-90489000D02*
X119115000Y-90489000D01*
X121597000Y-90529000D02*
X124654000Y-90529000D01*
X116058000Y-90529000D02*
X119115000Y-90529000D01*
X121597000Y-90569000D02*
X124679000Y-90569000D01*
X116033000Y-90569000D02*
X119115000Y-90569000D01*
X121597000Y-90609000D02*
X124703000Y-90609000D01*
X116009000Y-90609000D02*
X119115000Y-90609000D01*
X121597000Y-90649000D02*
X124727000Y-90649000D01*
X115985000Y-90649000D02*
X119115000Y-90649000D01*
X121597000Y-90689000D02*
X124751000Y-90689000D01*
X115961000Y-90689000D02*
X119115000Y-90689000D01*
X121597000Y-90729000D02*
X124773000Y-90729000D01*
X115939000Y-90729000D02*
X119115000Y-90729000D01*
X121597000Y-90769000D02*
X124796000Y-90769000D01*
X115916000Y-90769000D02*
X119115000Y-90769000D01*
X121597000Y-90809000D02*
X124818000Y-90809000D01*
X115894000Y-90809000D02*
X119115000Y-90809000D01*
X121597000Y-90849000D02*
X124839000Y-90849000D01*
X115873000Y-90849000D02*
X119115000Y-90849000D01*
X121597000Y-90889000D02*
X124860000Y-90889000D01*
X115852000Y-90889000D02*
X119115000Y-90889000D01*
X121597000Y-90929000D02*
X124881000Y-90929000D01*
X115831000Y-90929000D02*
X119115000Y-90929000D01*
X121597000Y-90969000D02*
X124901000Y-90969000D01*
X115811000Y-90969000D02*
X119115000Y-90969000D01*
X121597000Y-91009000D02*
X124920000Y-91009000D01*
X115792000Y-91009000D02*
X119115000Y-91009000D01*
X121597000Y-91049000D02*
X124940000Y-91049000D01*
X115772000Y-91049000D02*
X119115000Y-91049000D01*
X121597000Y-91089000D02*
X124959000Y-91089000D01*
X115753000Y-91089000D02*
X119115000Y-91089000D01*
X121597000Y-91129000D02*
X124977000Y-91129000D01*
X115735000Y-91129000D02*
X119115000Y-91129000D01*
X121597000Y-91169000D02*
X124995000Y-91169000D01*
X115717000Y-91169000D02*
X119115000Y-91169000D01*
X121597000Y-91209000D02*
X125013000Y-91209000D01*
X115699000Y-91209000D02*
X119115000Y-91209000D01*
X121597000Y-91249000D02*
X125030000Y-91249000D01*
X115682000Y-91249000D02*
X119115000Y-91249000D01*
X121597000Y-91289000D02*
X125046000Y-91289000D01*
X115666000Y-91289000D02*
X119115000Y-91289000D01*
X121597000Y-91329000D02*
X125063000Y-91329000D01*
X115649000Y-91329000D02*
X119115000Y-91329000D01*
X121597000Y-91369000D02*
X125079000Y-91369000D01*
X115633000Y-91369000D02*
X119115000Y-91369000D01*
X121597000Y-91409000D02*
X125094000Y-91409000D01*
X115618000Y-91409000D02*
X119115000Y-91409000D01*
X121597000Y-91449000D02*
X125110000Y-91449000D01*
X115602000Y-91449000D02*
X119115000Y-91449000D01*
X121597000Y-91489000D02*
X125124000Y-91489000D01*
X115588000Y-91489000D02*
X119115000Y-91489000D01*
X121597000Y-91529000D02*
X125139000Y-91529000D01*
X115573000Y-91529000D02*
X119115000Y-91529000D01*
X121597000Y-91569000D02*
X125153000Y-91569000D01*
X115559000Y-91569000D02*
X119115000Y-91569000D01*
X121597000Y-91609000D02*
X125167000Y-91609000D01*
X115545000Y-91609000D02*
X119115000Y-91609000D01*
X121597000Y-91649000D02*
X125180000Y-91649000D01*
X115532000Y-91649000D02*
X119115000Y-91649000D01*
X121597000Y-91689000D02*
X125193000Y-91689000D01*
X115519000Y-91689000D02*
X119115000Y-91689000D01*
X121597000Y-91729000D02*
X125206000Y-91729000D01*
X115506000Y-91729000D02*
X119115000Y-91729000D01*
X121597000Y-91769000D02*
X125218000Y-91769000D01*
X115494000Y-91769000D02*
X119115000Y-91769000D01*
X121597000Y-91809000D02*
X125230000Y-91809000D01*
X115482000Y-91809000D02*
X119115000Y-91809000D01*
X121597000Y-91849000D02*
X125241000Y-91849000D01*
X115471000Y-91849000D02*
X119115000Y-91849000D01*
X121597000Y-91889000D02*
X125253000Y-91889000D01*
X115459000Y-91889000D02*
X119115000Y-91889000D01*
X121597000Y-91929000D02*
X125263000Y-91929000D01*
X115449000Y-91929000D02*
X119115000Y-91929000D01*
X121597000Y-91969000D02*
X125274000Y-91969000D01*
X115438000Y-91969000D02*
X119115000Y-91969000D01*
X115428000Y-92009000D02*
X125284000Y-92009000D01*
X115418000Y-92049000D02*
X125294000Y-92049000D01*
X115409000Y-92089000D02*
X125303000Y-92089000D01*
X115400000Y-92129000D02*
X125312000Y-92129000D01*
X115391000Y-92169000D02*
X125321000Y-92169000D01*
X115382000Y-92209000D02*
X125330000Y-92209000D01*
X115374000Y-92249000D02*
X125338000Y-92249000D01*
X115366000Y-92289000D02*
X125346000Y-92289000D01*
X115359000Y-92329000D02*
X125353000Y-92329000D01*
X115352000Y-92369000D02*
X125360000Y-92369000D01*
X115345000Y-92409000D02*
X125367000Y-92409000D01*
X115338000Y-92449000D02*
X125374000Y-92449000D01*
X115332000Y-92489000D02*
X125380000Y-92489000D01*
X115326000Y-92529000D02*
X125386000Y-92529000D01*
X115321000Y-92570000D02*
X125391000Y-92570000D01*
X115316000Y-92610000D02*
X125396000Y-92610000D01*
X115311000Y-92650000D02*
X125401000Y-92650000D01*
X115306000Y-92690000D02*
X125406000Y-92690000D01*
X115302000Y-92730000D02*
X125410000Y-92730000D01*
X115298000Y-92770000D02*
X125414000Y-92770000D01*
X115294000Y-92810000D02*
X125418000Y-92810000D01*
X115291000Y-92850000D02*
X125421000Y-92850000D01*
X115288000Y-92890000D02*
X125424000Y-92890000D01*
X115286000Y-92930000D02*
X125426000Y-92930000D01*
X115283000Y-92970000D02*
X125429000Y-92970000D01*
X115281000Y-93010000D02*
X125431000Y-93010000D01*
X115279000Y-93050000D02*
X125433000Y-93050000D01*
X115278000Y-93090000D02*
X125434000Y-93090000D01*
X115277000Y-93130000D02*
X125435000Y-93130000D01*
X115276000Y-93170000D02*
X125436000Y-93170000D01*
X115276000Y-93210000D02*
X125436000Y-93210000D01*
X115276000Y-93250000D02*
X125436000Y-93250000D01*
X125476000Y-93250000D02*
G75*
G03X125476000Y-93250000I-5120000J0D01*
G01*
X117250000Y-87550000D02*
X117250000Y-79750000D01*
X142250000Y-87550000D02*
X117250000Y-87550000D01*
X142250000Y-79750000D02*
X142250000Y-87550000D01*
X117250000Y-79750000D02*
X142250000Y-79750000D01*
X182562000Y-98698000D02*
X182562000Y-87848000D01*
X177462000Y-98698000D02*
X182562000Y-98698000D01*
X177762000Y-98198000D02*
X177462000Y-98698000D01*
X172362000Y-98198000D02*
X177762000Y-98198000D01*
X172612000Y-98698000D02*
X172362000Y-98198000D01*
X172562000Y-98698000D02*
X172612000Y-98698000D01*
X170662000Y-98698000D02*
X172562000Y-98698000D01*
X170912000Y-98198000D02*
X170662000Y-98698000D01*
X169962000Y-98198000D02*
X170912000Y-98198000D01*
X169962000Y-87848000D02*
X169962000Y-98198000D01*
X182562000Y-87848000D02*
X169962000Y-87848000D01*
X115090000Y-115800000D02*
X115090000Y-108000000D01*
X140090000Y-115800000D02*
X115090000Y-115800000D01*
X140090000Y-108000000D02*
X140090000Y-115800000D01*
X115090000Y-108000000D02*
X140090000Y-108000000D01*
X141950000Y-128060000D02*
X141950000Y-122050000D01*
X148770000Y-125810000D02*
X148770000Y-122050000D01*
X141950000Y-122050000D02*
X143210000Y-122050000D01*
X148770000Y-122050000D02*
X147510000Y-122050000D01*
X164518000Y-138310000D02*
X164518000Y-136980000D01*
X165848000Y-138310000D02*
X164518000Y-138310000D01*
X167118000Y-138310000D02*
X167118000Y-135650000D01*
X167118000Y-135650000D02*
X179878000Y-135650000D01*
X167118000Y-138310000D02*
X179878000Y-138310000D01*
X179878000Y-138310000D02*
X179878000Y-135650000D01*
X182854000Y-111006000D02*
X160854000Y-111006000D01*
X182854000Y-132006000D02*
X182854000Y-111006000D01*
X160854000Y-132006000D02*
X182854000Y-132006000D01*
X160854000Y-111006000D02*
X160854000Y-132006000D01*
X151472252Y-129346000D02*
X150949748Y-129346000D01*
X151472252Y-130766000D02*
X150949748Y-130766000D01*
X145562000Y-111258252D02*
X145562000Y-110735748D01*
X144142000Y-111258252D02*
X144142000Y-110735748D01*
X153436000Y-111258252D02*
X153436000Y-110735748D01*
X152016000Y-111258252D02*
X152016000Y-110735748D01*
X151254000Y-135627748D02*
X151254000Y-136150252D01*
X152674000Y-135627748D02*
X152674000Y-136150252D01*
X130348000Y-104922748D02*
X130348000Y-105445252D01*
X131768000Y-104922748D02*
X131768000Y-105445252D01*
X136348000Y-104922748D02*
X136348000Y-105445252D01*
X137768000Y-104922748D02*
X137768000Y-105445252D01*
X152768000Y-105445252D02*
X152768000Y-104922748D01*
X151348000Y-105445252D02*
X151348000Y-104922748D01*
X133348000Y-104922748D02*
X133348000Y-105445252D01*
X134768000Y-104922748D02*
X134768000Y-105445252D01*
X153382752Y-98838000D02*
X152860248Y-98838000D01*
X153382752Y-97418000D02*
X152860248Y-97418000D01*
X149694383Y-117198264D02*
G75*
G02X149302000Y-117786000I-2302383J1112264D01*
G01*
X149748400Y-114987193D02*
G75*
G03X147392000Y-113486000I-2356400J-1098807D01*
G01*
X145035600Y-114987193D02*
G75*
G02X147392000Y-113486000I2356400J-1098807D01*
G01*
X145069369Y-117208045D02*
G75*
G03X145452000Y-117786000I2322631J1122045D01*
G01*
X145452000Y-117786000D02*
X149302000Y-117786000D01*
X157568383Y-117198264D02*
G75*
G02X157176000Y-117786000I-2302383J1112264D01*
G01*
X157622400Y-114987193D02*
G75*
G03X155266000Y-113486000I-2356400J-1098807D01*
G01*
X152909600Y-114987193D02*
G75*
G02X155266000Y-113486000I2356400J-1098807D01*
G01*
X152943369Y-117208045D02*
G75*
G03X153326000Y-117786000I2322631J1122045D01*
G01*
X153326000Y-117786000D02*
X157176000Y-117786000D01*
X99324000Y-92272000D02*
X99324000Y-103122000D01*
X104424000Y-92272000D02*
X99324000Y-92272000D01*
X104124000Y-92772000D02*
X104424000Y-92272000D01*
X109524000Y-92772000D02*
X104124000Y-92772000D01*
X109274000Y-92272000D02*
X109524000Y-92772000D01*
X109324000Y-92272000D02*
X109274000Y-92272000D01*
X111224000Y-92272000D02*
X109324000Y-92272000D01*
X110974000Y-92772000D02*
X111224000Y-92272000D01*
X111924000Y-92772000D02*
X110974000Y-92772000D01*
X111924000Y-103122000D02*
X111924000Y-92772000D01*
X99324000Y-103122000D02*
X111924000Y-103122000D01*
X150439522Y-127122478D02*
G75*
G03X154878000Y-125284000I1838478J1838478D01*
G01*
X150439522Y-123445522D02*
G75*
G02X154878000Y-125284000I1838478J-1838478D01*
G01*
X150428000Y-123484000D02*
X150428000Y-127084000D01*
X151539078Y-120456000D02*
X151021922Y-120456000D01*
X151539078Y-121876000D02*
X151021922Y-121876000D01*
X121696078Y-101790000D02*
X121178922Y-101790000D01*
X121696078Y-103210000D02*
X121178922Y-103210000D01*
X121178922Y-100460000D02*
X121696078Y-100460000D01*
X121178922Y-99040000D02*
X121696078Y-99040000D01*
X152862922Y-77790000D02*
X153380078Y-77790000D01*
X152862922Y-76370000D02*
X153380078Y-76370000D01*
X152862922Y-91418000D02*
X153380078Y-91418000D01*
X152862922Y-92838000D02*
X153380078Y-92838000D01*
X154290000Y-110741422D02*
X154290000Y-111258578D01*
X155710000Y-110741422D02*
X155710000Y-111258578D01*
X152862922Y-79336000D02*
X153380078Y-79336000D01*
X152862922Y-80756000D02*
X153380078Y-80756000D01*
X153380078Y-89838000D02*
X152862922Y-89838000D01*
X153380078Y-88418000D02*
X152862922Y-88418000D01*
X153380078Y-83838000D02*
X152862922Y-83838000D01*
X153380078Y-82418000D02*
X152862922Y-82418000D01*
X153380078Y-86838000D02*
X152862922Y-86838000D01*
X153380078Y-85418000D02*
X152862922Y-85418000D01*
X152862922Y-73370000D02*
X153380078Y-73370000D01*
X152862922Y-74790000D02*
X153380078Y-74790000D01*
X151460578Y-131886000D02*
X150943422Y-131886000D01*
X151460578Y-133306000D02*
X150943422Y-133306000D01*
X152862922Y-100418000D02*
X153380078Y-100418000D01*
X152862922Y-101838000D02*
X153380078Y-101838000D01*
X146540000Y-110668922D02*
X146540000Y-111186078D01*
X147960000Y-110668922D02*
X147960000Y-111186078D01*
X127348000Y-104925422D02*
X127348000Y-105442578D01*
X128768000Y-104925422D02*
X128768000Y-105442578D01*
X153380078Y-95838000D02*
X152862922Y-95838000D01*
X153380078Y-94418000D02*
X152862922Y-94418000D01*
X149768000Y-105442578D02*
X149768000Y-104925422D01*
X148348000Y-105442578D02*
X148348000Y-104925422D01*
X143768000Y-105442578D02*
X143768000Y-104925422D01*
X142348000Y-105442578D02*
X142348000Y-104925422D01*
X145348000Y-104925422D02*
X145348000Y-105442578D01*
X146768000Y-104925422D02*
X146768000Y-105442578D01*
X140768000Y-105442578D02*
X140768000Y-104925422D01*
X139348000Y-105442578D02*
X139348000Y-104925422D01*
X140440000Y-146390000D02*
X140440000Y-128350000D01*
X97000000Y-146390000D02*
X140440000Y-146390000D01*
X97000000Y-128350000D02*
X97000000Y-146390000D01*
X99670000Y-131020000D02*
X99670000Y-128350000D01*
X135230000Y-131020000D02*
X99670000Y-131020000D01*
X135230000Y-131020000D02*
X135230000Y-128350000D01*
X99670000Y-143720000D02*
X99670000Y-146390000D01*
X137770000Y-143720000D02*
X99670000Y-143720000D01*
X137770000Y-143720000D02*
X137770000Y-146390000D01*
X140440000Y-128350000D02*
X137770000Y-128350000D01*
X135230000Y-128350000D02*
X97000000Y-128350000D01*
X137770000Y-131020000D02*
X137770000Y-128350000D01*
X135230000Y-131020000D02*
X137770000Y-131020000D01*
X128210000Y-117778252D02*
X128210000Y-117255748D01*
X126790000Y-117778252D02*
X126790000Y-117255748D01*
X131252000Y-78094252D02*
X131252000Y-77571748D01*
X129832000Y-78094252D02*
X129832000Y-77571748D01*
X115140000Y-127092000D02*
X115140000Y-119292000D01*
X140140000Y-127092000D02*
X115140000Y-127092000D01*
X140140000Y-119292000D02*
X140140000Y-127092000D01*
X115140000Y-119292000D02*
X140140000Y-119292000D01*
X117292000Y-75800000D02*
X117292000Y-68000000D01*
X142292000Y-75800000D02*
X117292000Y-75800000D01*
X142292000Y-68000000D02*
X142292000Y-75800000D01*
X117292000Y-68000000D02*
X142292000Y-68000000D01*
X111924000Y-83478000D02*
X111924000Y-72628000D01*
X106824000Y-83478000D02*
X111924000Y-83478000D01*
X107124000Y-82978000D02*
X106824000Y-83478000D01*
X101724000Y-82978000D02*
X107124000Y-82978000D01*
X101974000Y-83478000D02*
X101724000Y-82978000D01*
X101924000Y-83478000D02*
X101974000Y-83478000D01*
X100024000Y-83478000D02*
X101924000Y-83478000D01*
X100274000Y-82978000D02*
X100024000Y-83478000D01*
X99324000Y-82978000D02*
X100274000Y-82978000D01*
X99324000Y-72628000D02*
X99324000Y-82978000D01*
X111924000Y-72628000D02*
X99324000Y-72628000D01*
X111924000Y-123478000D02*
X111924000Y-112628000D01*
X106824000Y-123478000D02*
X111924000Y-123478000D01*
X107124000Y-122978000D02*
X106824000Y-123478000D01*
X101724000Y-122978000D02*
X107124000Y-122978000D01*
X101974000Y-123478000D02*
X101724000Y-122978000D01*
X101924000Y-123478000D02*
X101974000Y-123478000D01*
X100024000Y-123478000D02*
X101924000Y-123478000D01*
X100274000Y-122978000D02*
X100024000Y-123478000D01*
X99324000Y-122978000D02*
X100274000Y-122978000D01*
X99324000Y-112628000D02*
X99324000Y-122978000D01*
X111924000Y-112628000D02*
X99324000Y-112628000D01*
X125710000Y-117768078D02*
X125710000Y-117250922D01*
X124290000Y-117768078D02*
X124290000Y-117250922D01*
X129790000Y-117280922D02*
X129790000Y-117798078D01*
X131210000Y-117280922D02*
X131210000Y-117798078D01*
X122710000Y-117770578D02*
X122710000Y-117253422D01*
X121290000Y-117770578D02*
X121290000Y-117253422D01*
X119762500Y-117690578D02*
X119762500Y-117173422D01*
X118342500Y-117690578D02*
X118342500Y-117173422D01*
X126530000Y-77491422D02*
X126530000Y-78008578D01*
X127950000Y-77491422D02*
X127950000Y-78008578D01*
X133388000Y-77491422D02*
X133388000Y-78008578D01*
X134808000Y-77491422D02*
X134808000Y-78008578D01*
X120290000Y-77491422D02*
X120290000Y-78008578D01*
X121710000Y-77491422D02*
X121710000Y-78008578D01*
X123290000Y-77491422D02*
X123290000Y-78008578D01*
X124710000Y-77491422D02*
X124710000Y-78008578D01*
D10*
X134112095Y-95008380D02*
X134112095Y-95817904D01*
X134159714Y-95913142D01*
X134207333Y-95960761D01*
X134302571Y-96008380D01*
X134493047Y-96008380D01*
X134588285Y-95960761D01*
X134635904Y-95913142D01*
X134683523Y-95817904D01*
X134683523Y-95008380D01*
X135683523Y-96008380D02*
X135112095Y-96008380D01*
X135397809Y-96008380D02*
X135397809Y-95008380D01*
X135302571Y-95151238D01*
X135207333Y-95246476D01*
X135112095Y-95294095D01*
X133580666Y-95928380D02*
X133247333Y-95452190D01*
X133009238Y-95928380D02*
X133009238Y-94928380D01*
X133390190Y-94928380D01*
X133485428Y-94976000D01*
X133533047Y-95023619D01*
X133580666Y-95118857D01*
X133580666Y-95261714D01*
X133533047Y-95356952D01*
X133485428Y-95404571D01*
X133390190Y-95452190D01*
X133009238Y-95452190D01*
X134009238Y-95404571D02*
X134342571Y-95404571D01*
X134485428Y-95928380D02*
X134009238Y-95928380D01*
X134009238Y-94928380D01*
X134485428Y-94928380D01*
X135247333Y-95404571D02*
X134914000Y-95404571D01*
X134914000Y-95928380D02*
X134914000Y-94928380D01*
X135390190Y-94928380D01*
X135914000Y-94928380D02*
X135914000Y-95166476D01*
X135675904Y-95071238D02*
X135914000Y-95166476D01*
X136152095Y-95071238D01*
X135771142Y-95356952D02*
X135914000Y-95166476D01*
X136056857Y-95356952D01*
X136675904Y-94928380D02*
X136675904Y-95166476D01*
X136437809Y-95071238D02*
X136675904Y-95166476D01*
X136914000Y-95071238D01*
X136533047Y-95356952D02*
X136675904Y-95166476D01*
X136818761Y-95356952D01*
X174990285Y-98722380D02*
X175656952Y-98722380D01*
X174990285Y-99722380D01*
X175656952Y-99722380D01*
X176561714Y-99722380D02*
X175990285Y-99722380D01*
X176276000Y-99722380D02*
X176276000Y-98722380D01*
X176180761Y-98865238D01*
X176085523Y-98960476D01*
X175990285Y-99008095D01*
X177514095Y-99722380D02*
X176942666Y-99722380D01*
X177228380Y-99722380D02*
X177228380Y-98722380D01*
X177133142Y-98865238D01*
X177037904Y-98960476D01*
X176942666Y-99008095D01*
X172114285Y-144972380D02*
X172780952Y-144972380D01*
X172114285Y-145972380D01*
X172780952Y-145972380D01*
X173685714Y-145972380D02*
X173114285Y-145972380D01*
X173400000Y-145972380D02*
X173400000Y-144972380D01*
X173304761Y-145115238D01*
X173209523Y-145210476D01*
X173114285Y-145258095D01*
X174304761Y-144972380D02*
X174400000Y-144972380D01*
X174495238Y-145020000D01*
X174542857Y-145067619D01*
X174590476Y-145162857D01*
X174638095Y-145353333D01*
X174638095Y-145591428D01*
X174590476Y-145781904D01*
X174542857Y-145877142D01*
X174495238Y-145924761D01*
X174400000Y-145972380D01*
X174304761Y-145972380D01*
X174209523Y-145924761D01*
X174161904Y-145877142D01*
X174114285Y-145781904D01*
X174066666Y-145591428D01*
X174066666Y-145353333D01*
X174114285Y-145162857D01*
X174161904Y-145067619D01*
X174209523Y-145020000D01*
X174304761Y-144972380D01*
X176990476Y-145366380D02*
X177657142Y-145366380D01*
X176990476Y-146366380D01*
X177657142Y-146366380D01*
X178085714Y-146366380D02*
X178276190Y-146366380D01*
X178371428Y-146318761D01*
X178419047Y-146271142D01*
X178514285Y-146128285D01*
X178561904Y-145937809D01*
X178561904Y-145556857D01*
X178514285Y-145461619D01*
X178466666Y-145414000D01*
X178371428Y-145366380D01*
X178180952Y-145366380D01*
X178085714Y-145414000D01*
X178038095Y-145461619D01*
X177990476Y-145556857D01*
X177990476Y-145794952D01*
X178038095Y-145890190D01*
X178085714Y-145937809D01*
X178180952Y-145985428D01*
X178371428Y-145985428D01*
X178466666Y-145937809D01*
X178514285Y-145890190D01*
X178561904Y-145794952D01*
X104354380Y-126539523D02*
X104354380Y-125872857D01*
X105354380Y-126539523D01*
X105354380Y-125872857D01*
X104782952Y-125349047D02*
X104735333Y-125444285D01*
X104687714Y-125491904D01*
X104592476Y-125539523D01*
X104544857Y-125539523D01*
X104449619Y-125491904D01*
X104402000Y-125444285D01*
X104354380Y-125349047D01*
X104354380Y-125158571D01*
X104402000Y-125063333D01*
X104449619Y-125015714D01*
X104544857Y-124968095D01*
X104592476Y-124968095D01*
X104687714Y-125015714D01*
X104735333Y-125063333D01*
X104782952Y-125158571D01*
X104782952Y-125349047D01*
X104830571Y-125444285D01*
X104878190Y-125491904D01*
X104973428Y-125539523D01*
X105163904Y-125539523D01*
X105259142Y-125491904D01*
X105306761Y-125444285D01*
X105354380Y-125349047D01*
X105354380Y-125158571D01*
X105306761Y-125063333D01*
X105259142Y-125015714D01*
X105163904Y-124968095D01*
X104973428Y-124968095D01*
X104878190Y-125015714D01*
X104830571Y-125063333D01*
X104782952Y-125158571D01*
X109180380Y-126539523D02*
X109180380Y-125872857D01*
X110180380Y-126539523D01*
X110180380Y-125872857D01*
X109180380Y-125587142D02*
X109180380Y-124920476D01*
X110180380Y-125349047D01*
X142954476Y-141140380D02*
X143621142Y-141140380D01*
X142954476Y-142140380D01*
X143621142Y-142140380D01*
X144430666Y-141140380D02*
X144240190Y-141140380D01*
X144144952Y-141188000D01*
X144097333Y-141235619D01*
X144002095Y-141378476D01*
X143954476Y-141568952D01*
X143954476Y-141949904D01*
X144002095Y-142045142D01*
X144049714Y-142092761D01*
X144144952Y-142140380D01*
X144335428Y-142140380D01*
X144430666Y-142092761D01*
X144478285Y-142045142D01*
X144525904Y-141949904D01*
X144525904Y-141711809D01*
X144478285Y-141616571D01*
X144430666Y-141568952D01*
X144335428Y-141521333D01*
X144144952Y-141521333D01*
X144049714Y-141568952D01*
X144002095Y-141616571D01*
X143954476Y-141711809D01*
X102576380Y-86915523D02*
X102576380Y-86248857D01*
X103576380Y-86915523D01*
X103576380Y-86248857D01*
X102576380Y-85391714D02*
X102576380Y-85867904D01*
X103052571Y-85915523D01*
X103004952Y-85867904D01*
X102957333Y-85772666D01*
X102957333Y-85534571D01*
X103004952Y-85439333D01*
X103052571Y-85391714D01*
X103147809Y-85344095D01*
X103385904Y-85344095D01*
X103481142Y-85391714D01*
X103528761Y-85439333D01*
X103576380Y-85534571D01*
X103576380Y-85772666D01*
X103528761Y-85867904D01*
X103481142Y-85915523D01*
X102322380Y-70405523D02*
X102322380Y-69738857D01*
X103322380Y-70405523D01*
X103322380Y-69738857D01*
X102655714Y-68929333D02*
X103322380Y-68929333D01*
X102274761Y-69167428D02*
X102989047Y-69405523D01*
X102989047Y-68786476D01*
X99274380Y-126539523D02*
X99274380Y-125872857D01*
X100274380Y-126539523D01*
X100274380Y-125872857D01*
X99274380Y-125587142D02*
X99274380Y-124968095D01*
X99655333Y-125301428D01*
X99655333Y-125158571D01*
X99702952Y-125063333D01*
X99750571Y-125015714D01*
X99845809Y-124968095D01*
X100083904Y-124968095D01*
X100179142Y-125015714D01*
X100226761Y-125063333D01*
X100274380Y-125158571D01*
X100274380Y-125444285D01*
X100226761Y-125539523D01*
X100179142Y-125587142D01*
X104600476Y-107178380D02*
X105267142Y-107178380D01*
X104600476Y-108178380D01*
X105267142Y-108178380D01*
X105600476Y-107273619D02*
X105648095Y-107226000D01*
X105743333Y-107178380D01*
X105981428Y-107178380D01*
X106076666Y-107226000D01*
X106124285Y-107273619D01*
X106171904Y-107368857D01*
X106171904Y-107464095D01*
X106124285Y-107606952D01*
X105552857Y-108178380D01*
X106171904Y-108178380D01*
X175452476Y-81270380D02*
X176119142Y-81270380D01*
X175452476Y-82270380D01*
X176119142Y-82270380D01*
X177023904Y-82270380D02*
X176452476Y-82270380D01*
X176738190Y-82270380D02*
X176738190Y-81270380D01*
X176642952Y-81413238D01*
X176547714Y-81508476D01*
X176452476Y-81556095D01*
X114657142Y-94114857D02*
X114704761Y-94162476D01*
X114752380Y-94305333D01*
X114752380Y-94400571D01*
X114704761Y-94543428D01*
X114609523Y-94638666D01*
X114514285Y-94686285D01*
X114323809Y-94733904D01*
X114180952Y-94733904D01*
X113990476Y-94686285D01*
X113895238Y-94638666D01*
X113800000Y-94543428D01*
X113752380Y-94400571D01*
X113752380Y-94305333D01*
X113800000Y-94162476D01*
X113847619Y-94114857D01*
X113847619Y-93733904D02*
X113800000Y-93686285D01*
X113752380Y-93591047D01*
X113752380Y-93352952D01*
X113800000Y-93257714D01*
X113847619Y-93210095D01*
X113942857Y-93162476D01*
X114038095Y-93162476D01*
X114180952Y-93210095D01*
X114752380Y-93781523D01*
X114752380Y-93162476D01*
X113752380Y-92829142D02*
X113752380Y-92210095D01*
X114133333Y-92543428D01*
X114133333Y-92400571D01*
X114180952Y-92305333D01*
X114228571Y-92257714D01*
X114323809Y-92210095D01*
X114561904Y-92210095D01*
X114657142Y-92257714D01*
X114704761Y-92305333D01*
X114752380Y-92400571D01*
X114752380Y-92686285D01*
X114704761Y-92781523D01*
X114657142Y-92829142D01*
X117024380Y-83806666D02*
X117024380Y-84282857D01*
X116024380Y-84282857D01*
X116119619Y-83520952D02*
X116072000Y-83473333D01*
X116024380Y-83378095D01*
X116024380Y-83140000D01*
X116072000Y-83044761D01*
X116119619Y-82997142D01*
X116214857Y-82949523D01*
X116310095Y-82949523D01*
X116452952Y-82997142D01*
X117024380Y-83568571D01*
X117024380Y-82949523D01*
X168362380Y-93551333D02*
X169076666Y-93551333D01*
X169219523Y-93598952D01*
X169314761Y-93694190D01*
X169362380Y-93837047D01*
X169362380Y-93932285D01*
X169362380Y-92551333D02*
X169362380Y-93122761D01*
X169362380Y-92837047D02*
X168362380Y-92837047D01*
X168505238Y-92932285D01*
X168600476Y-93027523D01*
X168648095Y-93122761D01*
X115006380Y-112180666D02*
X115006380Y-112656857D01*
X114006380Y-112656857D01*
X114339714Y-111418761D02*
X115006380Y-111418761D01*
X113958761Y-111656857D02*
X114673047Y-111894952D01*
X114673047Y-111275904D01*
X144526095Y-118324380D02*
X144526095Y-119133904D01*
X144573714Y-119229142D01*
X144621333Y-119276761D01*
X144716571Y-119324380D01*
X144907047Y-119324380D01*
X145002285Y-119276761D01*
X145049904Y-119229142D01*
X145097523Y-119133904D01*
X145097523Y-118324380D01*
X146002285Y-118657714D02*
X146002285Y-119324380D01*
X145764190Y-118276761D02*
X145526095Y-118991047D01*
X146145142Y-118991047D01*
X162970380Y-137741904D02*
X163779904Y-137741904D01*
X163875142Y-137694285D01*
X163922761Y-137646666D01*
X163970380Y-137551428D01*
X163970380Y-137360952D01*
X163922761Y-137265714D01*
X163875142Y-137218095D01*
X163779904Y-137170476D01*
X162970380Y-137170476D01*
X162970380Y-136789523D02*
X162970380Y-136170476D01*
X163351333Y-136503809D01*
X163351333Y-136360952D01*
X163398952Y-136265714D01*
X163446571Y-136218095D01*
X163541809Y-136170476D01*
X163779904Y-136170476D01*
X163875142Y-136218095D01*
X163922761Y-136265714D01*
X163970380Y-136360952D01*
X163970380Y-136646666D01*
X163922761Y-136741904D01*
X163875142Y-136789523D01*
X170942095Y-109688380D02*
X170942095Y-110497904D01*
X170989714Y-110593142D01*
X171037333Y-110640761D01*
X171132571Y-110688380D01*
X171323047Y-110688380D01*
X171418285Y-110640761D01*
X171465904Y-110593142D01*
X171513523Y-110497904D01*
X171513523Y-109688380D01*
X171942095Y-109783619D02*
X171989714Y-109736000D01*
X172084952Y-109688380D01*
X172323047Y-109688380D01*
X172418285Y-109736000D01*
X172465904Y-109783619D01*
X172513523Y-109878857D01*
X172513523Y-109974095D01*
X172465904Y-110116952D01*
X171894476Y-110688380D01*
X172513523Y-110688380D01*
X147185142Y-130500380D02*
X146851809Y-130024190D01*
X146613714Y-130500380D02*
X146613714Y-129500380D01*
X146994666Y-129500380D01*
X147089904Y-129548000D01*
X147137523Y-129595619D01*
X147185142Y-129690857D01*
X147185142Y-129833714D01*
X147137523Y-129928952D01*
X147089904Y-129976571D01*
X146994666Y-130024190D01*
X146613714Y-130024190D01*
X148137523Y-130500380D02*
X147566095Y-130500380D01*
X147851809Y-130500380D02*
X147851809Y-129500380D01*
X147756571Y-129643238D01*
X147661333Y-129738476D01*
X147566095Y-129786095D01*
X148470857Y-129500380D02*
X149089904Y-129500380D01*
X148756571Y-129881333D01*
X148899428Y-129881333D01*
X148994666Y-129928952D01*
X149042285Y-129976571D01*
X149089904Y-130071809D01*
X149089904Y-130309904D01*
X149042285Y-130405142D01*
X148994666Y-130452761D01*
X148899428Y-130500380D01*
X148613714Y-130500380D01*
X148518476Y-130452761D01*
X148470857Y-130405142D01*
X143654380Y-111639857D02*
X143178190Y-111973190D01*
X143654380Y-112211285D02*
X142654380Y-112211285D01*
X142654380Y-111830333D01*
X142702000Y-111735095D01*
X142749619Y-111687476D01*
X142844857Y-111639857D01*
X142987714Y-111639857D01*
X143082952Y-111687476D01*
X143130571Y-111735095D01*
X143178190Y-111830333D01*
X143178190Y-112211285D01*
X143654380Y-110687476D02*
X143654380Y-111258904D01*
X143654380Y-110973190D02*
X142654380Y-110973190D01*
X142797238Y-111068428D01*
X142892476Y-111163666D01*
X142940095Y-111258904D01*
X142654380Y-110068428D02*
X142654380Y-109973190D01*
X142702000Y-109877952D01*
X142749619Y-109830333D01*
X142844857Y-109782714D01*
X143035333Y-109735095D01*
X143273428Y-109735095D01*
X143463904Y-109782714D01*
X143559142Y-109830333D01*
X143606761Y-109877952D01*
X143654380Y-109973190D01*
X143654380Y-110068428D01*
X143606761Y-110163666D01*
X143559142Y-110211285D01*
X143463904Y-110258904D01*
X143273428Y-110306523D01*
X143035333Y-110306523D01*
X142844857Y-110258904D01*
X142749619Y-110211285D01*
X142702000Y-110163666D01*
X142654380Y-110068428D01*
X151528380Y-111163666D02*
X151052190Y-111497000D01*
X151528380Y-111735095D02*
X150528380Y-111735095D01*
X150528380Y-111354142D01*
X150576000Y-111258904D01*
X150623619Y-111211285D01*
X150718857Y-111163666D01*
X150861714Y-111163666D01*
X150956952Y-111211285D01*
X151004571Y-111258904D01*
X151052190Y-111354142D01*
X151052190Y-111735095D01*
X151528380Y-110687476D02*
X151528380Y-110497000D01*
X151480761Y-110401761D01*
X151433142Y-110354142D01*
X151290285Y-110258904D01*
X151099809Y-110211285D01*
X150718857Y-110211285D01*
X150623619Y-110258904D01*
X150576000Y-110306523D01*
X150528380Y-110401761D01*
X150528380Y-110592238D01*
X150576000Y-110687476D01*
X150623619Y-110735095D01*
X150718857Y-110782714D01*
X150956952Y-110782714D01*
X151052190Y-110735095D01*
X151099809Y-110687476D01*
X151147428Y-110592238D01*
X151147428Y-110401761D01*
X151099809Y-110306523D01*
X151052190Y-110258904D01*
X150956952Y-110211285D01*
X154122380Y-136310666D02*
X153646190Y-136644000D01*
X154122380Y-136882095D02*
X153122380Y-136882095D01*
X153122380Y-136501142D01*
X153170000Y-136405904D01*
X153217619Y-136358285D01*
X153312857Y-136310666D01*
X153455714Y-136310666D01*
X153550952Y-136358285D01*
X153598571Y-136405904D01*
X153646190Y-136501142D01*
X153646190Y-136882095D01*
X153550952Y-135739238D02*
X153503333Y-135834476D01*
X153455714Y-135882095D01*
X153360476Y-135929714D01*
X153312857Y-135929714D01*
X153217619Y-135882095D01*
X153170000Y-135834476D01*
X153122380Y-135739238D01*
X153122380Y-135548761D01*
X153170000Y-135453523D01*
X153217619Y-135405904D01*
X153312857Y-135358285D01*
X153360476Y-135358285D01*
X153455714Y-135405904D01*
X153503333Y-135453523D01*
X153550952Y-135548761D01*
X153550952Y-135739238D01*
X153598571Y-135834476D01*
X153646190Y-135882095D01*
X153741428Y-135929714D01*
X153931904Y-135929714D01*
X154027142Y-135882095D01*
X154074761Y-135834476D01*
X154122380Y-135739238D01*
X154122380Y-135548761D01*
X154074761Y-135453523D01*
X154027142Y-135405904D01*
X153931904Y-135358285D01*
X153741428Y-135358285D01*
X153646190Y-135405904D01*
X153598571Y-135453523D01*
X153550952Y-135548761D01*
X131502380Y-102348666D02*
X131026190Y-102682000D01*
X131502380Y-102920095D02*
X130502380Y-102920095D01*
X130502380Y-102539142D01*
X130550000Y-102443904D01*
X130597619Y-102396285D01*
X130692857Y-102348666D01*
X130835714Y-102348666D01*
X130930952Y-102396285D01*
X130978571Y-102443904D01*
X131026190Y-102539142D01*
X131026190Y-102920095D01*
X130502380Y-102015333D02*
X130502380Y-101348666D01*
X131502380Y-101777238D01*
X137598380Y-102348666D02*
X137122190Y-102682000D01*
X137598380Y-102920095D02*
X136598380Y-102920095D01*
X136598380Y-102539142D01*
X136646000Y-102443904D01*
X136693619Y-102396285D01*
X136788857Y-102348666D01*
X136931714Y-102348666D01*
X137026952Y-102396285D01*
X137074571Y-102443904D01*
X137122190Y-102539142D01*
X137122190Y-102920095D01*
X136931714Y-101491523D02*
X137598380Y-101491523D01*
X136550761Y-101729619D02*
X137265047Y-101967714D01*
X137265047Y-101348666D01*
X154362380Y-105350666D02*
X153886190Y-105684000D01*
X154362380Y-105922095D02*
X153362380Y-105922095D01*
X153362380Y-105541142D01*
X153410000Y-105445904D01*
X153457619Y-105398285D01*
X153552857Y-105350666D01*
X153695714Y-105350666D01*
X153790952Y-105398285D01*
X153838571Y-105445904D01*
X153886190Y-105541142D01*
X153886190Y-105922095D01*
X153362380Y-105017333D02*
X153362380Y-104398285D01*
X153743333Y-104731619D01*
X153743333Y-104588761D01*
X153790952Y-104493523D01*
X153838571Y-104445904D01*
X153933809Y-104398285D01*
X154171904Y-104398285D01*
X154267142Y-104445904D01*
X154314761Y-104493523D01*
X154362380Y-104588761D01*
X154362380Y-104874476D01*
X154314761Y-104969714D01*
X154267142Y-105017333D01*
X134550380Y-102348666D02*
X134074190Y-102682000D01*
X134550380Y-102920095D02*
X133550380Y-102920095D01*
X133550380Y-102539142D01*
X133598000Y-102443904D01*
X133645619Y-102396285D01*
X133740857Y-102348666D01*
X133883714Y-102348666D01*
X133978952Y-102396285D01*
X134026571Y-102443904D01*
X134074190Y-102539142D01*
X134074190Y-102920095D01*
X133645619Y-101967714D02*
X133598000Y-101920095D01*
X133550380Y-101824857D01*
X133550380Y-101586761D01*
X133598000Y-101491523D01*
X133645619Y-101443904D01*
X133740857Y-101396285D01*
X133836095Y-101396285D01*
X133978952Y-101443904D01*
X134550380Y-102015333D01*
X134550380Y-101396285D01*
X155521333Y-101618380D02*
X155188000Y-101142190D01*
X154949904Y-101618380D02*
X154949904Y-100618380D01*
X155330857Y-100618380D01*
X155426095Y-100666000D01*
X155473714Y-100713619D01*
X155521333Y-100808857D01*
X155521333Y-100951714D01*
X155473714Y-101046952D01*
X155426095Y-101094571D01*
X155330857Y-101142190D01*
X154949904Y-101142190D01*
X156473714Y-101618380D02*
X155902285Y-101618380D01*
X156188000Y-101618380D02*
X156188000Y-100618380D01*
X156092761Y-100761238D01*
X155997523Y-100856476D01*
X155902285Y-100904095D01*
X147986761Y-119165619D02*
X147891523Y-119118000D01*
X147796285Y-119022761D01*
X147653428Y-118879904D01*
X147558190Y-118832285D01*
X147462952Y-118832285D01*
X147510571Y-119070380D02*
X147415333Y-119022761D01*
X147320095Y-118927523D01*
X147272476Y-118737047D01*
X147272476Y-118403714D01*
X147320095Y-118213238D01*
X147415333Y-118118000D01*
X147510571Y-118070380D01*
X147701047Y-118070380D01*
X147796285Y-118118000D01*
X147891523Y-118213238D01*
X147939142Y-118403714D01*
X147939142Y-118737047D01*
X147891523Y-118927523D01*
X147796285Y-119022761D01*
X147701047Y-119070380D01*
X147510571Y-119070380D01*
X148320095Y-118165619D02*
X148367714Y-118118000D01*
X148462952Y-118070380D01*
X148701047Y-118070380D01*
X148796285Y-118118000D01*
X148843904Y-118165619D01*
X148891523Y-118260857D01*
X148891523Y-118356095D01*
X148843904Y-118498952D01*
X148272476Y-119070380D01*
X148891523Y-119070380D01*
X155170761Y-119165619D02*
X155075523Y-119118000D01*
X154980285Y-119022761D01*
X154837428Y-118879904D01*
X154742190Y-118832285D01*
X154646952Y-118832285D01*
X154694571Y-119070380D02*
X154599333Y-119022761D01*
X154504095Y-118927523D01*
X154456476Y-118737047D01*
X154456476Y-118403714D01*
X154504095Y-118213238D01*
X154599333Y-118118000D01*
X154694571Y-118070380D01*
X154885047Y-118070380D01*
X154980285Y-118118000D01*
X155075523Y-118213238D01*
X155123142Y-118403714D01*
X155123142Y-118737047D01*
X155075523Y-118927523D01*
X154980285Y-119022761D01*
X154885047Y-119070380D01*
X154694571Y-119070380D01*
X156075523Y-119070380D02*
X155504095Y-119070380D01*
X155789809Y-119070380D02*
X155789809Y-118070380D01*
X155694571Y-118213238D01*
X155599333Y-118308476D01*
X155504095Y-118356095D01*
X98004380Y-97869333D02*
X98718666Y-97869333D01*
X98861523Y-97916952D01*
X98956761Y-98012190D01*
X99004380Y-98155047D01*
X99004380Y-98250285D01*
X98337714Y-96964571D02*
X99004380Y-96964571D01*
X97956761Y-97202666D02*
X98671047Y-97440761D01*
X98671047Y-96821714D01*
X156290380Y-126260190D02*
X155290380Y-126260190D01*
X156195142Y-125212571D02*
X156242761Y-125260190D01*
X156290380Y-125403047D01*
X156290380Y-125498285D01*
X156242761Y-125641142D01*
X156147523Y-125736380D01*
X156052285Y-125784000D01*
X155861809Y-125831619D01*
X155718952Y-125831619D01*
X155528476Y-125784000D01*
X155433238Y-125736380D01*
X155338000Y-125641142D01*
X155290380Y-125498285D01*
X155290380Y-125403047D01*
X155338000Y-125260190D01*
X155385619Y-125212571D01*
X155385619Y-124831619D02*
X155338000Y-124784000D01*
X155290380Y-124688761D01*
X155290380Y-124450666D01*
X155338000Y-124355428D01*
X155385619Y-124307809D01*
X155480857Y-124260190D01*
X155576095Y-124260190D01*
X155718952Y-124307809D01*
X156290380Y-124879238D01*
X156290380Y-124260190D01*
X150487142Y-119991142D02*
X150439523Y-120038761D01*
X150296666Y-120086380D01*
X150201428Y-120086380D01*
X150058571Y-120038761D01*
X149963333Y-119943523D01*
X149915714Y-119848285D01*
X149868095Y-119657809D01*
X149868095Y-119514952D01*
X149915714Y-119324476D01*
X149963333Y-119229238D01*
X150058571Y-119134000D01*
X150201428Y-119086380D01*
X150296666Y-119086380D01*
X150439523Y-119134000D01*
X150487142Y-119181619D01*
X150868095Y-119181619D02*
X150915714Y-119134000D01*
X151010952Y-119086380D01*
X151249047Y-119086380D01*
X151344285Y-119134000D01*
X151391904Y-119181619D01*
X151439523Y-119276857D01*
X151439523Y-119372095D01*
X151391904Y-119514952D01*
X150820476Y-120086380D01*
X151439523Y-120086380D01*
X151915714Y-120086380D02*
X152106190Y-120086380D01*
X152201428Y-120038761D01*
X152249047Y-119991142D01*
X152344285Y-119848285D01*
X152391904Y-119657809D01*
X152391904Y-119276857D01*
X152344285Y-119181619D01*
X152296666Y-119134000D01*
X152201428Y-119086380D01*
X152010952Y-119086380D01*
X151915714Y-119134000D01*
X151868095Y-119181619D01*
X151820476Y-119276857D01*
X151820476Y-119514952D01*
X151868095Y-119610190D01*
X151915714Y-119657809D01*
X152010952Y-119705428D01*
X152201428Y-119705428D01*
X152296666Y-119657809D01*
X152344285Y-119610190D01*
X152391904Y-119514952D01*
X117721142Y-102973142D02*
X117673523Y-103020761D01*
X117530666Y-103068380D01*
X117435428Y-103068380D01*
X117292571Y-103020761D01*
X117197333Y-102925523D01*
X117149714Y-102830285D01*
X117102095Y-102639809D01*
X117102095Y-102496952D01*
X117149714Y-102306476D01*
X117197333Y-102211238D01*
X117292571Y-102116000D01*
X117435428Y-102068380D01*
X117530666Y-102068380D01*
X117673523Y-102116000D01*
X117721142Y-102163619D01*
X118102095Y-102163619D02*
X118149714Y-102116000D01*
X118244952Y-102068380D01*
X118483047Y-102068380D01*
X118578285Y-102116000D01*
X118625904Y-102163619D01*
X118673523Y-102258857D01*
X118673523Y-102354095D01*
X118625904Y-102496952D01*
X118054476Y-103068380D01*
X118673523Y-103068380D01*
X119578285Y-102068380D02*
X119102095Y-102068380D01*
X119054476Y-102544571D01*
X119102095Y-102496952D01*
X119197333Y-102449333D01*
X119435428Y-102449333D01*
X119530666Y-102496952D01*
X119578285Y-102544571D01*
X119625904Y-102639809D01*
X119625904Y-102877904D01*
X119578285Y-102973142D01*
X119530666Y-103020761D01*
X119435428Y-103068380D01*
X119197333Y-103068380D01*
X119102095Y-103020761D01*
X119054476Y-102973142D01*
X117721142Y-100179142D02*
X117673523Y-100226761D01*
X117530666Y-100274380D01*
X117435428Y-100274380D01*
X117292571Y-100226761D01*
X117197333Y-100131523D01*
X117149714Y-100036285D01*
X117102095Y-99845809D01*
X117102095Y-99702952D01*
X117149714Y-99512476D01*
X117197333Y-99417238D01*
X117292571Y-99322000D01*
X117435428Y-99274380D01*
X117530666Y-99274380D01*
X117673523Y-99322000D01*
X117721142Y-99369619D01*
X118673523Y-100274380D02*
X118102095Y-100274380D01*
X118387809Y-100274380D02*
X118387809Y-99274380D01*
X118292571Y-99417238D01*
X118197333Y-99512476D01*
X118102095Y-99560095D01*
X119149714Y-100274380D02*
X119340190Y-100274380D01*
X119435428Y-100226761D01*
X119483047Y-100179142D01*
X119578285Y-100036285D01*
X119625904Y-99845809D01*
X119625904Y-99464857D01*
X119578285Y-99369619D01*
X119530666Y-99322000D01*
X119435428Y-99274380D01*
X119244952Y-99274380D01*
X119149714Y-99322000D01*
X119102095Y-99369619D01*
X119054476Y-99464857D01*
X119054476Y-99702952D01*
X119102095Y-99798190D01*
X119149714Y-99845809D01*
X119244952Y-99893428D01*
X119435428Y-99893428D01*
X119530666Y-99845809D01*
X119578285Y-99798190D01*
X119625904Y-99702952D01*
X155807142Y-77647142D02*
X155759523Y-77694761D01*
X155616666Y-77742380D01*
X155521428Y-77742380D01*
X155378571Y-77694761D01*
X155283333Y-77599523D01*
X155235714Y-77504285D01*
X155188095Y-77313809D01*
X155188095Y-77170952D01*
X155235714Y-76980476D01*
X155283333Y-76885238D01*
X155378571Y-76790000D01*
X155521428Y-76742380D01*
X155616666Y-76742380D01*
X155759523Y-76790000D01*
X155807142Y-76837619D01*
X156759523Y-77742380D02*
X156188095Y-77742380D01*
X156473809Y-77742380D02*
X156473809Y-76742380D01*
X156378571Y-76885238D01*
X156283333Y-76980476D01*
X156188095Y-77028095D01*
X157092857Y-76742380D02*
X157759523Y-76742380D01*
X157330952Y-77742380D01*
X155807142Y-92633142D02*
X155759523Y-92680761D01*
X155616666Y-92728380D01*
X155521428Y-92728380D01*
X155378571Y-92680761D01*
X155283333Y-92585523D01*
X155235714Y-92490285D01*
X155188095Y-92299809D01*
X155188095Y-92156952D01*
X155235714Y-91966476D01*
X155283333Y-91871238D01*
X155378571Y-91776000D01*
X155521428Y-91728380D01*
X155616666Y-91728380D01*
X155759523Y-91776000D01*
X155807142Y-91823619D01*
X156759523Y-92728380D02*
X156188095Y-92728380D01*
X156473809Y-92728380D02*
X156473809Y-91728380D01*
X156378571Y-91871238D01*
X156283333Y-91966476D01*
X156188095Y-92014095D01*
X157616666Y-91728380D02*
X157426190Y-91728380D01*
X157330952Y-91776000D01*
X157283333Y-91823619D01*
X157188095Y-91966476D01*
X157140476Y-92156952D01*
X157140476Y-92537904D01*
X157188095Y-92633142D01*
X157235714Y-92680761D01*
X157330952Y-92728380D01*
X157521428Y-92728380D01*
X157616666Y-92680761D01*
X157664285Y-92633142D01*
X157711904Y-92537904D01*
X157711904Y-92299809D01*
X157664285Y-92204571D01*
X157616666Y-92156952D01*
X157521428Y-92109333D01*
X157330952Y-92109333D01*
X157235714Y-92156952D01*
X157188095Y-92204571D01*
X157140476Y-92299809D01*
X157007142Y-111642857D02*
X157054761Y-111690476D01*
X157102380Y-111833333D01*
X157102380Y-111928571D01*
X157054761Y-112071428D01*
X156959523Y-112166666D01*
X156864285Y-112214285D01*
X156673809Y-112261904D01*
X156530952Y-112261904D01*
X156340476Y-112214285D01*
X156245238Y-112166666D01*
X156150000Y-112071428D01*
X156102380Y-111928571D01*
X156102380Y-111833333D01*
X156150000Y-111690476D01*
X156197619Y-111642857D01*
X157102380Y-110690476D02*
X157102380Y-111261904D01*
X157102380Y-110976190D02*
X156102380Y-110976190D01*
X156245238Y-111071428D01*
X156340476Y-111166666D01*
X156388095Y-111261904D01*
X156102380Y-109785714D02*
X156102380Y-110261904D01*
X156578571Y-110309523D01*
X156530952Y-110261904D01*
X156483333Y-110166666D01*
X156483333Y-109928571D01*
X156530952Y-109833333D01*
X156578571Y-109785714D01*
X156673809Y-109738095D01*
X156911904Y-109738095D01*
X157007142Y-109785714D01*
X157054761Y-109833333D01*
X157102380Y-109928571D01*
X157102380Y-110166666D01*
X157054761Y-110261904D01*
X157007142Y-110309523D01*
X155807142Y-80441142D02*
X155759523Y-80488761D01*
X155616666Y-80536380D01*
X155521428Y-80536380D01*
X155378571Y-80488761D01*
X155283333Y-80393523D01*
X155235714Y-80298285D01*
X155188095Y-80107809D01*
X155188095Y-79964952D01*
X155235714Y-79774476D01*
X155283333Y-79679238D01*
X155378571Y-79584000D01*
X155521428Y-79536380D01*
X155616666Y-79536380D01*
X155759523Y-79584000D01*
X155807142Y-79631619D01*
X156759523Y-80536380D02*
X156188095Y-80536380D01*
X156473809Y-80536380D02*
X156473809Y-79536380D01*
X156378571Y-79679238D01*
X156283333Y-79774476D01*
X156188095Y-79822095D01*
X157616666Y-79869714D02*
X157616666Y-80536380D01*
X157378571Y-79488761D02*
X157140476Y-80203047D01*
X157759523Y-80203047D01*
X155807142Y-89585142D02*
X155759523Y-89632761D01*
X155616666Y-89680380D01*
X155521428Y-89680380D01*
X155378571Y-89632761D01*
X155283333Y-89537523D01*
X155235714Y-89442285D01*
X155188095Y-89251809D01*
X155188095Y-89108952D01*
X155235714Y-88918476D01*
X155283333Y-88823238D01*
X155378571Y-88728000D01*
X155521428Y-88680380D01*
X155616666Y-88680380D01*
X155759523Y-88728000D01*
X155807142Y-88775619D01*
X156759523Y-89680380D02*
X156188095Y-89680380D01*
X156473809Y-89680380D02*
X156473809Y-88680380D01*
X156378571Y-88823238D01*
X156283333Y-88918476D01*
X156188095Y-88966095D01*
X157092857Y-88680380D02*
X157711904Y-88680380D01*
X157378571Y-89061333D01*
X157521428Y-89061333D01*
X157616666Y-89108952D01*
X157664285Y-89156571D01*
X157711904Y-89251809D01*
X157711904Y-89489904D01*
X157664285Y-89585142D01*
X157616666Y-89632761D01*
X157521428Y-89680380D01*
X157235714Y-89680380D01*
X157140476Y-89632761D01*
X157092857Y-89585142D01*
X155553142Y-83489142D02*
X155505523Y-83536761D01*
X155362666Y-83584380D01*
X155267428Y-83584380D01*
X155124571Y-83536761D01*
X155029333Y-83441523D01*
X154981714Y-83346285D01*
X154934095Y-83155809D01*
X154934095Y-83012952D01*
X154981714Y-82822476D01*
X155029333Y-82727238D01*
X155124571Y-82632000D01*
X155267428Y-82584380D01*
X155362666Y-82584380D01*
X155505523Y-82632000D01*
X155553142Y-82679619D01*
X156505523Y-83584380D02*
X155934095Y-83584380D01*
X156219809Y-83584380D02*
X156219809Y-82584380D01*
X156124571Y-82727238D01*
X156029333Y-82822476D01*
X155934095Y-82870095D01*
X156886476Y-82679619D02*
X156934095Y-82632000D01*
X157029333Y-82584380D01*
X157267428Y-82584380D01*
X157362666Y-82632000D01*
X157410285Y-82679619D01*
X157457904Y-82774857D01*
X157457904Y-82870095D01*
X157410285Y-83012952D01*
X156838857Y-83584380D01*
X157457904Y-83584380D01*
X155807142Y-86537142D02*
X155759523Y-86584761D01*
X155616666Y-86632380D01*
X155521428Y-86632380D01*
X155378571Y-86584761D01*
X155283333Y-86489523D01*
X155235714Y-86394285D01*
X155188095Y-86203809D01*
X155188095Y-86060952D01*
X155235714Y-85870476D01*
X155283333Y-85775238D01*
X155378571Y-85680000D01*
X155521428Y-85632380D01*
X155616666Y-85632380D01*
X155759523Y-85680000D01*
X155807142Y-85727619D01*
X156759523Y-86632380D02*
X156188095Y-86632380D01*
X156473809Y-86632380D02*
X156473809Y-85632380D01*
X156378571Y-85775238D01*
X156283333Y-85870476D01*
X156188095Y-85918095D01*
X157711904Y-86632380D02*
X157140476Y-86632380D01*
X157426190Y-86632380D02*
X157426190Y-85632380D01*
X157330952Y-85775238D01*
X157235714Y-85870476D01*
X157140476Y-85918095D01*
X155807142Y-74599142D02*
X155759523Y-74646761D01*
X155616666Y-74694380D01*
X155521428Y-74694380D01*
X155378571Y-74646761D01*
X155283333Y-74551523D01*
X155235714Y-74456285D01*
X155188095Y-74265809D01*
X155188095Y-74122952D01*
X155235714Y-73932476D01*
X155283333Y-73837238D01*
X155378571Y-73742000D01*
X155521428Y-73694380D01*
X155616666Y-73694380D01*
X155759523Y-73742000D01*
X155807142Y-73789619D01*
X156759523Y-74694380D02*
X156188095Y-74694380D01*
X156473809Y-74694380D02*
X156473809Y-73694380D01*
X156378571Y-73837238D01*
X156283333Y-73932476D01*
X156188095Y-73980095D01*
X157378571Y-73694380D02*
X157473809Y-73694380D01*
X157569047Y-73742000D01*
X157616666Y-73789619D01*
X157664285Y-73884857D01*
X157711904Y-74075333D01*
X157711904Y-74313428D01*
X157664285Y-74503904D01*
X157616666Y-74599142D01*
X157569047Y-74646761D01*
X157473809Y-74694380D01*
X157378571Y-74694380D01*
X157283333Y-74646761D01*
X157235714Y-74599142D01*
X157188095Y-74503904D01*
X157140476Y-74313428D01*
X157140476Y-74075333D01*
X157188095Y-73884857D01*
X157235714Y-73789619D01*
X157283333Y-73742000D01*
X157378571Y-73694380D01*
X148169333Y-132945142D02*
X148121714Y-132992761D01*
X147978857Y-133040380D01*
X147883619Y-133040380D01*
X147740761Y-132992761D01*
X147645523Y-132897523D01*
X147597904Y-132802285D01*
X147550285Y-132611809D01*
X147550285Y-132468952D01*
X147597904Y-132278476D01*
X147645523Y-132183238D01*
X147740761Y-132088000D01*
X147883619Y-132040380D01*
X147978857Y-132040380D01*
X148121714Y-132088000D01*
X148169333Y-132135619D01*
X148645523Y-133040380D02*
X148836000Y-133040380D01*
X148931238Y-132992761D01*
X148978857Y-132945142D01*
X149074095Y-132802285D01*
X149121714Y-132611809D01*
X149121714Y-132230857D01*
X149074095Y-132135619D01*
X149026476Y-132088000D01*
X148931238Y-132040380D01*
X148740761Y-132040380D01*
X148645523Y-132088000D01*
X148597904Y-132135619D01*
X148550285Y-132230857D01*
X148550285Y-132468952D01*
X148597904Y-132564190D01*
X148645523Y-132611809D01*
X148740761Y-132659428D01*
X148931238Y-132659428D01*
X149026476Y-132611809D01*
X149074095Y-132564190D01*
X149121714Y-132468952D01*
X155775333Y-98475142D02*
X155727714Y-98522761D01*
X155584857Y-98570380D01*
X155489619Y-98570380D01*
X155346761Y-98522761D01*
X155251523Y-98427523D01*
X155203904Y-98332285D01*
X155156285Y-98141809D01*
X155156285Y-97998952D01*
X155203904Y-97808476D01*
X155251523Y-97713238D01*
X155346761Y-97618000D01*
X155489619Y-97570380D01*
X155584857Y-97570380D01*
X155727714Y-97618000D01*
X155775333Y-97665619D01*
X156346761Y-97998952D02*
X156251523Y-97951333D01*
X156203904Y-97903714D01*
X156156285Y-97808476D01*
X156156285Y-97760857D01*
X156203904Y-97665619D01*
X156251523Y-97618000D01*
X156346761Y-97570380D01*
X156537238Y-97570380D01*
X156632476Y-97618000D01*
X156680095Y-97665619D01*
X156727714Y-97760857D01*
X156727714Y-97808476D01*
X156680095Y-97903714D01*
X156632476Y-97951333D01*
X156537238Y-97998952D01*
X156346761Y-97998952D01*
X156251523Y-98046571D01*
X156203904Y-98094190D01*
X156156285Y-98189428D01*
X156156285Y-98379904D01*
X156203904Y-98475142D01*
X156251523Y-98522761D01*
X156346761Y-98570380D01*
X156537238Y-98570380D01*
X156632476Y-98522761D01*
X156680095Y-98475142D01*
X156727714Y-98379904D01*
X156727714Y-98189428D01*
X156680095Y-98094190D01*
X156632476Y-98046571D01*
X156537238Y-97998952D01*
X149257142Y-111094166D02*
X149304761Y-111141785D01*
X149352380Y-111284642D01*
X149352380Y-111379880D01*
X149304761Y-111522738D01*
X149209523Y-111617976D01*
X149114285Y-111665595D01*
X148923809Y-111713214D01*
X148780952Y-111713214D01*
X148590476Y-111665595D01*
X148495238Y-111617976D01*
X148400000Y-111522738D01*
X148352380Y-111379880D01*
X148352380Y-111284642D01*
X148400000Y-111141785D01*
X148447619Y-111094166D01*
X148352380Y-110760833D02*
X148352380Y-110094166D01*
X149352380Y-110522738D01*
X128359142Y-102602666D02*
X128406761Y-102650285D01*
X128454380Y-102793142D01*
X128454380Y-102888380D01*
X128406761Y-103031238D01*
X128311523Y-103126476D01*
X128216285Y-103174095D01*
X128025809Y-103221714D01*
X127882952Y-103221714D01*
X127692476Y-103174095D01*
X127597238Y-103126476D01*
X127502000Y-103031238D01*
X127454380Y-102888380D01*
X127454380Y-102793142D01*
X127502000Y-102650285D01*
X127549619Y-102602666D01*
X127454380Y-101745523D02*
X127454380Y-101936000D01*
X127502000Y-102031238D01*
X127549619Y-102078857D01*
X127692476Y-102174095D01*
X127882952Y-102221714D01*
X128263904Y-102221714D01*
X128359142Y-102174095D01*
X128406761Y-102126476D01*
X128454380Y-102031238D01*
X128454380Y-101840761D01*
X128406761Y-101745523D01*
X128359142Y-101697904D01*
X128263904Y-101650285D01*
X128025809Y-101650285D01*
X127930571Y-101697904D01*
X127882952Y-101745523D01*
X127835333Y-101840761D01*
X127835333Y-102031238D01*
X127882952Y-102126476D01*
X127930571Y-102174095D01*
X128025809Y-102221714D01*
X155521333Y-95427142D02*
X155473714Y-95474761D01*
X155330857Y-95522380D01*
X155235619Y-95522380D01*
X155092761Y-95474761D01*
X154997523Y-95379523D01*
X154949904Y-95284285D01*
X154902285Y-95093809D01*
X154902285Y-94950952D01*
X154949904Y-94760476D01*
X154997523Y-94665238D01*
X155092761Y-94570000D01*
X155235619Y-94522380D01*
X155330857Y-94522380D01*
X155473714Y-94570000D01*
X155521333Y-94617619D01*
X156426095Y-94522380D02*
X155949904Y-94522380D01*
X155902285Y-94998571D01*
X155949904Y-94950952D01*
X156045142Y-94903333D01*
X156283238Y-94903333D01*
X156378476Y-94950952D01*
X156426095Y-94998571D01*
X156473714Y-95093809D01*
X156473714Y-95331904D01*
X156426095Y-95427142D01*
X156378476Y-95474761D01*
X156283238Y-95522380D01*
X156045142Y-95522380D01*
X155949904Y-95474761D01*
X155902285Y-95427142D01*
X149441142Y-102602666D02*
X149488761Y-102650285D01*
X149536380Y-102793142D01*
X149536380Y-102888380D01*
X149488761Y-103031238D01*
X149393523Y-103126476D01*
X149298285Y-103174095D01*
X149107809Y-103221714D01*
X148964952Y-103221714D01*
X148774476Y-103174095D01*
X148679238Y-103126476D01*
X148584000Y-103031238D01*
X148536380Y-102888380D01*
X148536380Y-102793142D01*
X148584000Y-102650285D01*
X148631619Y-102602666D01*
X148869714Y-101745523D02*
X149536380Y-101745523D01*
X148488761Y-101983619D02*
X149203047Y-102221714D01*
X149203047Y-101602666D01*
X143345142Y-102602666D02*
X143392761Y-102650285D01*
X143440380Y-102793142D01*
X143440380Y-102888380D01*
X143392761Y-103031238D01*
X143297523Y-103126476D01*
X143202285Y-103174095D01*
X143011809Y-103221714D01*
X142868952Y-103221714D01*
X142678476Y-103174095D01*
X142583238Y-103126476D01*
X142488000Y-103031238D01*
X142440380Y-102888380D01*
X142440380Y-102793142D01*
X142488000Y-102650285D01*
X142535619Y-102602666D01*
X142440380Y-102269333D02*
X142440380Y-101650285D01*
X142821333Y-101983619D01*
X142821333Y-101840761D01*
X142868952Y-101745523D01*
X142916571Y-101697904D01*
X143011809Y-101650285D01*
X143249904Y-101650285D01*
X143345142Y-101697904D01*
X143392761Y-101745523D01*
X143440380Y-101840761D01*
X143440380Y-102126476D01*
X143392761Y-102221714D01*
X143345142Y-102269333D01*
X146393142Y-102602666D02*
X146440761Y-102650285D01*
X146488380Y-102793142D01*
X146488380Y-102888380D01*
X146440761Y-103031238D01*
X146345523Y-103126476D01*
X146250285Y-103174095D01*
X146059809Y-103221714D01*
X145916952Y-103221714D01*
X145726476Y-103174095D01*
X145631238Y-103126476D01*
X145536000Y-103031238D01*
X145488380Y-102888380D01*
X145488380Y-102793142D01*
X145536000Y-102650285D01*
X145583619Y-102602666D01*
X145583619Y-102221714D02*
X145536000Y-102174095D01*
X145488380Y-102078857D01*
X145488380Y-101840761D01*
X145536000Y-101745523D01*
X145583619Y-101697904D01*
X145678857Y-101650285D01*
X145774095Y-101650285D01*
X145916952Y-101697904D01*
X146488380Y-102269333D01*
X146488380Y-101650285D01*
X140297142Y-102602666D02*
X140344761Y-102650285D01*
X140392380Y-102793142D01*
X140392380Y-102888380D01*
X140344761Y-103031238D01*
X140249523Y-103126476D01*
X140154285Y-103174095D01*
X139963809Y-103221714D01*
X139820952Y-103221714D01*
X139630476Y-103174095D01*
X139535238Y-103126476D01*
X139440000Y-103031238D01*
X139392380Y-102888380D01*
X139392380Y-102793142D01*
X139440000Y-102650285D01*
X139487619Y-102602666D01*
X140392380Y-101650285D02*
X140392380Y-102221714D01*
X140392380Y-101936000D02*
X139392380Y-101936000D01*
X139535238Y-102031238D01*
X139630476Y-102126476D01*
X139678095Y-102221714D01*
X141746666Y-138084285D02*
X141746666Y-137608095D01*
X142032380Y-138179523D02*
X141032380Y-137846190D01*
X142032380Y-137512857D01*
X142032380Y-136655714D02*
X142032380Y-137227142D01*
X142032380Y-136941428D02*
X141032380Y-136941428D01*
X141175238Y-137036666D01*
X141270476Y-137131904D01*
X141318095Y-137227142D01*
X126302380Y-117683666D02*
X125826190Y-118017000D01*
X126302380Y-118255095D02*
X125302380Y-118255095D01*
X125302380Y-117874142D01*
X125350000Y-117778904D01*
X125397619Y-117731285D01*
X125492857Y-117683666D01*
X125635714Y-117683666D01*
X125730952Y-117731285D01*
X125778571Y-117778904D01*
X125826190Y-117874142D01*
X125826190Y-118255095D01*
X125302380Y-116826523D02*
X125302380Y-117017000D01*
X125350000Y-117112238D01*
X125397619Y-117159857D01*
X125540476Y-117255095D01*
X125730952Y-117302714D01*
X126111904Y-117302714D01*
X126207142Y-117255095D01*
X126254761Y-117207476D01*
X126302380Y-117112238D01*
X126302380Y-116921761D01*
X126254761Y-116826523D01*
X126207142Y-116778904D01*
X126111904Y-116731285D01*
X125873809Y-116731285D01*
X125778571Y-116778904D01*
X125730952Y-116826523D01*
X125683333Y-116921761D01*
X125683333Y-117112238D01*
X125730952Y-117207476D01*
X125778571Y-117255095D01*
X125873809Y-117302714D01*
X126168380Y-77964666D02*
X125692190Y-78298000D01*
X126168380Y-78536095D02*
X125168380Y-78536095D01*
X125168380Y-78155142D01*
X125216000Y-78059904D01*
X125263619Y-78012285D01*
X125358857Y-77964666D01*
X125501714Y-77964666D01*
X125596952Y-78012285D01*
X125644571Y-78059904D01*
X125692190Y-78155142D01*
X125692190Y-78536095D01*
X125168380Y-77059904D02*
X125168380Y-77536095D01*
X125644571Y-77583714D01*
X125596952Y-77536095D01*
X125549333Y-77440857D01*
X125549333Y-77202761D01*
X125596952Y-77107523D01*
X125644571Y-77059904D01*
X125739809Y-77012285D01*
X125977904Y-77012285D01*
X126073142Y-77059904D01*
X126120761Y-77107523D01*
X126168380Y-77202761D01*
X126168380Y-77440857D01*
X126120761Y-77536095D01*
X126073142Y-77583714D01*
X115006380Y-123356666D02*
X115006380Y-123832857D01*
X114006380Y-123832857D01*
X114006380Y-123118571D02*
X114006380Y-122499523D01*
X114387333Y-122832857D01*
X114387333Y-122690000D01*
X114434952Y-122594761D01*
X114482571Y-122547142D01*
X114577809Y-122499523D01*
X114815904Y-122499523D01*
X114911142Y-122547142D01*
X114958761Y-122594761D01*
X115006380Y-122690000D01*
X115006380Y-122975714D01*
X114958761Y-123070952D01*
X114911142Y-123118571D01*
X117024380Y-72122666D02*
X117024380Y-72598857D01*
X116024380Y-72598857D01*
X117024380Y-71265523D02*
X117024380Y-71836952D01*
X117024380Y-71551238D02*
X116024380Y-71551238D01*
X116167238Y-71646476D01*
X116262476Y-71741714D01*
X116310095Y-71836952D01*
X98004380Y-78385333D02*
X98718666Y-78385333D01*
X98861523Y-78432952D01*
X98956761Y-78528190D01*
X99004380Y-78671047D01*
X99004380Y-78766285D01*
X98004380Y-78004380D02*
X98004380Y-77385333D01*
X98385333Y-77718666D01*
X98385333Y-77575809D01*
X98432952Y-77480571D01*
X98480571Y-77432952D01*
X98575809Y-77385333D01*
X98813904Y-77385333D01*
X98909142Y-77432952D01*
X98956761Y-77480571D01*
X99004380Y-77575809D01*
X99004380Y-77861523D01*
X98956761Y-77956761D01*
X98909142Y-78004380D01*
X98004380Y-118443333D02*
X98718666Y-118443333D01*
X98861523Y-118490952D01*
X98956761Y-118586190D01*
X99004380Y-118729047D01*
X99004380Y-118824285D01*
X98099619Y-118014761D02*
X98052000Y-117967142D01*
X98004380Y-117871904D01*
X98004380Y-117633809D01*
X98052000Y-117538571D01*
X98099619Y-117490952D01*
X98194857Y-117443333D01*
X98290095Y-117443333D01*
X98432952Y-117490952D01*
X99004380Y-118062380D01*
X99004380Y-117443333D01*
X123707142Y-118152357D02*
X123754761Y-118199976D01*
X123802380Y-118342833D01*
X123802380Y-118438071D01*
X123754761Y-118580928D01*
X123659523Y-118676166D01*
X123564285Y-118723785D01*
X123373809Y-118771404D01*
X123230952Y-118771404D01*
X123040476Y-118723785D01*
X122945238Y-118676166D01*
X122850000Y-118580928D01*
X122802380Y-118438071D01*
X122802380Y-118342833D01*
X122850000Y-118199976D01*
X122897619Y-118152357D01*
X122897619Y-117771404D02*
X122850000Y-117723785D01*
X122802380Y-117628547D01*
X122802380Y-117390452D01*
X122850000Y-117295214D01*
X122897619Y-117247595D01*
X122992857Y-117199976D01*
X123088095Y-117199976D01*
X123230952Y-117247595D01*
X123802380Y-117819023D01*
X123802380Y-117199976D01*
X123230952Y-116628547D02*
X123183333Y-116723785D01*
X123135714Y-116771404D01*
X123040476Y-116819023D01*
X122992857Y-116819023D01*
X122897619Y-116771404D01*
X122850000Y-116723785D01*
X122802380Y-116628547D01*
X122802380Y-116438071D01*
X122850000Y-116342833D01*
X122897619Y-116295214D01*
X122992857Y-116247595D01*
X123040476Y-116247595D01*
X123135714Y-116295214D01*
X123183333Y-116342833D01*
X123230952Y-116438071D01*
X123230952Y-116628547D01*
X123278571Y-116723785D01*
X123326190Y-116771404D01*
X123421428Y-116819023D01*
X123611904Y-116819023D01*
X123707142Y-116771404D01*
X123754761Y-116723785D01*
X123802380Y-116628547D01*
X123802380Y-116438071D01*
X123754761Y-116342833D01*
X123707142Y-116295214D01*
X123611904Y-116247595D01*
X123421428Y-116247595D01*
X123326190Y-116295214D01*
X123278571Y-116342833D01*
X123230952Y-116438071D01*
X132507142Y-118182357D02*
X132554761Y-118229976D01*
X132602380Y-118372833D01*
X132602380Y-118468071D01*
X132554761Y-118610928D01*
X132459523Y-118706166D01*
X132364285Y-118753785D01*
X132173809Y-118801404D01*
X132030952Y-118801404D01*
X131840476Y-118753785D01*
X131745238Y-118706166D01*
X131650000Y-118610928D01*
X131602380Y-118468071D01*
X131602380Y-118372833D01*
X131650000Y-118229976D01*
X131697619Y-118182357D01*
X131697619Y-117801404D02*
X131650000Y-117753785D01*
X131602380Y-117658547D01*
X131602380Y-117420452D01*
X131650000Y-117325214D01*
X131697619Y-117277595D01*
X131792857Y-117229976D01*
X131888095Y-117229976D01*
X132030952Y-117277595D01*
X132602380Y-117849023D01*
X132602380Y-117229976D01*
X131602380Y-116896642D02*
X131602380Y-116229976D01*
X132602380Y-116658547D01*
X120707142Y-118154857D02*
X120754761Y-118202476D01*
X120802380Y-118345333D01*
X120802380Y-118440571D01*
X120754761Y-118583428D01*
X120659523Y-118678666D01*
X120564285Y-118726285D01*
X120373809Y-118773904D01*
X120230952Y-118773904D01*
X120040476Y-118726285D01*
X119945238Y-118678666D01*
X119850000Y-118583428D01*
X119802380Y-118440571D01*
X119802380Y-118345333D01*
X119850000Y-118202476D01*
X119897619Y-118154857D01*
X119897619Y-117773904D02*
X119850000Y-117726285D01*
X119802380Y-117631047D01*
X119802380Y-117392952D01*
X119850000Y-117297714D01*
X119897619Y-117250095D01*
X119992857Y-117202476D01*
X120088095Y-117202476D01*
X120230952Y-117250095D01*
X120802380Y-117821523D01*
X120802380Y-117202476D01*
X119802380Y-116345333D02*
X119802380Y-116535809D01*
X119850000Y-116631047D01*
X119897619Y-116678666D01*
X120040476Y-116773904D01*
X120230952Y-116821523D01*
X120611904Y-116821523D01*
X120707142Y-116773904D01*
X120754761Y-116726285D01*
X120802380Y-116631047D01*
X120802380Y-116440571D01*
X120754761Y-116345333D01*
X120707142Y-116297714D01*
X120611904Y-116250095D01*
X120373809Y-116250095D01*
X120278571Y-116297714D01*
X120230952Y-116345333D01*
X120183333Y-116440571D01*
X120183333Y-116631047D01*
X120230952Y-116726285D01*
X120278571Y-116773904D01*
X120373809Y-116821523D01*
X117759642Y-118074857D02*
X117807261Y-118122476D01*
X117854880Y-118265333D01*
X117854880Y-118360571D01*
X117807261Y-118503428D01*
X117712023Y-118598666D01*
X117616785Y-118646285D01*
X117426309Y-118693904D01*
X117283452Y-118693904D01*
X117092976Y-118646285D01*
X116997738Y-118598666D01*
X116902500Y-118503428D01*
X116854880Y-118360571D01*
X116854880Y-118265333D01*
X116902500Y-118122476D01*
X116950119Y-118074857D01*
X116950119Y-117693904D02*
X116902500Y-117646285D01*
X116854880Y-117551047D01*
X116854880Y-117312952D01*
X116902500Y-117217714D01*
X116950119Y-117170095D01*
X117045357Y-117122476D01*
X117140595Y-117122476D01*
X117283452Y-117170095D01*
X117854880Y-117741523D01*
X117854880Y-117122476D01*
X117188214Y-116265333D02*
X117854880Y-116265333D01*
X116807261Y-116503428D02*
X117521547Y-116741523D01*
X117521547Y-116122476D01*
X129247142Y-78363357D02*
X129294761Y-78410976D01*
X129342380Y-78553833D01*
X129342380Y-78649071D01*
X129294761Y-78791928D01*
X129199523Y-78887166D01*
X129104285Y-78934785D01*
X128913809Y-78982404D01*
X128770952Y-78982404D01*
X128580476Y-78934785D01*
X128485238Y-78887166D01*
X128390000Y-78791928D01*
X128342380Y-78649071D01*
X128342380Y-78553833D01*
X128390000Y-78410976D01*
X128437619Y-78363357D01*
X128437619Y-77982404D02*
X128390000Y-77934785D01*
X128342380Y-77839547D01*
X128342380Y-77601452D01*
X128390000Y-77506214D01*
X128437619Y-77458595D01*
X128532857Y-77410976D01*
X128628095Y-77410976D01*
X128770952Y-77458595D01*
X129342380Y-78030023D01*
X129342380Y-77410976D01*
X128437619Y-77030023D02*
X128390000Y-76982404D01*
X128342380Y-76887166D01*
X128342380Y-76649071D01*
X128390000Y-76553833D01*
X128437619Y-76506214D01*
X128532857Y-76458595D01*
X128628095Y-76458595D01*
X128770952Y-76506214D01*
X129342380Y-77077642D01*
X129342380Y-76458595D01*
X132677142Y-78392857D02*
X132724761Y-78440476D01*
X132772380Y-78583333D01*
X132772380Y-78678571D01*
X132724761Y-78821428D01*
X132629523Y-78916666D01*
X132534285Y-78964285D01*
X132343809Y-79011904D01*
X132200952Y-79011904D01*
X132010476Y-78964285D01*
X131915238Y-78916666D01*
X131820000Y-78821428D01*
X131772380Y-78678571D01*
X131772380Y-78583333D01*
X131820000Y-78440476D01*
X131867619Y-78392857D01*
X131867619Y-78011904D02*
X131820000Y-77964285D01*
X131772380Y-77869047D01*
X131772380Y-77630952D01*
X131820000Y-77535714D01*
X131867619Y-77488095D01*
X131962857Y-77440476D01*
X132058095Y-77440476D01*
X132200952Y-77488095D01*
X132772380Y-78059523D01*
X132772380Y-77440476D01*
X132772380Y-76488095D02*
X132772380Y-77059523D01*
X132772380Y-76773809D02*
X131772380Y-76773809D01*
X131915238Y-76869047D01*
X132010476Y-76964285D01*
X132058095Y-77059523D01*
X119723142Y-78440857D02*
X119770761Y-78488476D01*
X119818380Y-78631333D01*
X119818380Y-78726571D01*
X119770761Y-78869428D01*
X119675523Y-78964666D01*
X119580285Y-79012285D01*
X119389809Y-79059904D01*
X119246952Y-79059904D01*
X119056476Y-79012285D01*
X118961238Y-78964666D01*
X118866000Y-78869428D01*
X118818380Y-78726571D01*
X118818380Y-78631333D01*
X118866000Y-78488476D01*
X118913619Y-78440857D01*
X118913619Y-78059904D02*
X118866000Y-78012285D01*
X118818380Y-77917047D01*
X118818380Y-77678952D01*
X118866000Y-77583714D01*
X118913619Y-77536095D01*
X119008857Y-77488476D01*
X119104095Y-77488476D01*
X119246952Y-77536095D01*
X119818380Y-78107523D01*
X119818380Y-77488476D01*
X118818380Y-76869428D02*
X118818380Y-76774190D01*
X118866000Y-76678952D01*
X118913619Y-76631333D01*
X119008857Y-76583714D01*
X119199333Y-76536095D01*
X119437428Y-76536095D01*
X119627904Y-76583714D01*
X119723142Y-76631333D01*
X119770761Y-76678952D01*
X119818380Y-76774190D01*
X119818380Y-76869428D01*
X119770761Y-76964666D01*
X119723142Y-77012285D01*
X119627904Y-77059904D01*
X119437428Y-77107523D01*
X119199333Y-77107523D01*
X119008857Y-77059904D01*
X118913619Y-77012285D01*
X118866000Y-76964666D01*
X118818380Y-76869428D01*
X122771142Y-78440857D02*
X122818761Y-78488476D01*
X122866380Y-78631333D01*
X122866380Y-78726571D01*
X122818761Y-78869428D01*
X122723523Y-78964666D01*
X122628285Y-79012285D01*
X122437809Y-79059904D01*
X122294952Y-79059904D01*
X122104476Y-79012285D01*
X122009238Y-78964666D01*
X121914000Y-78869428D01*
X121866380Y-78726571D01*
X121866380Y-78631333D01*
X121914000Y-78488476D01*
X121961619Y-78440857D01*
X122866380Y-77488476D02*
X122866380Y-78059904D01*
X122866380Y-77774190D02*
X121866380Y-77774190D01*
X122009238Y-77869428D01*
X122104476Y-77964666D01*
X122152095Y-78059904D01*
X122294952Y-76917047D02*
X122247333Y-77012285D01*
X122199714Y-77059904D01*
X122104476Y-77107523D01*
X122056857Y-77107523D01*
X121961619Y-77059904D01*
X121914000Y-77012285D01*
X121866380Y-76917047D01*
X121866380Y-76726571D01*
X121914000Y-76631333D01*
X121961619Y-76583714D01*
X122056857Y-76536095D01*
X122104476Y-76536095D01*
X122199714Y-76583714D01*
X122247333Y-76631333D01*
X122294952Y-76726571D01*
X122294952Y-76917047D01*
X122342571Y-77012285D01*
X122390190Y-77059904D01*
X122485428Y-77107523D01*
X122675904Y-77107523D01*
X122771142Y-77059904D01*
X122818761Y-77012285D01*
X122866380Y-76917047D01*
X122866380Y-76726571D01*
X122818761Y-76631333D01*
X122771142Y-76583714D01*
X122675904Y-76536095D01*
X122485428Y-76536095D01*
X122390190Y-76583714D01*
X122342571Y-76631333D01*
X122294952Y-76726571D01*
M02*
