M48
; DRILL file {KiCad (5.1.4)-1} date 07.12.2020 13:54:20
; FORMAT={-:-/ absolute / inch / decimal}
; #@! TF.CreationDate,2020-12-07T13:54:20+02:00
; #@! TF.GenerationSoftware,Kicad,Pcbnew,(5.1.4)-1
; #@! TF.FileFunction,Plated,1,2,PTH
FMAT,2
INCH
T1C0.0157
T2C0.0295
T3C0.0300
T4C0.0315
T5C0.0394
T6C0.0520
T7C0.1260
%
G90
G05
T1
X4.8031Y-4.6634
X4.8179Y-3.9272
X4.8194Y-4.0329
X4.8694Y-5.0129
X4.96Y-3.73
X4.9694Y-4.9129
X5.01Y-3.76
X5.0197Y-4.6654
X5.0394Y-4.1732
X5.0591Y-3.7303
X5.0689Y-3.9665
X5.1378Y-4.6644
X5.1575Y-4.1831
X5.2441Y-3.6467
X5.2451Y-3.687
X5.2451Y-3.7264
X5.2451Y-3.7657
X5.2451Y-3.8051
X5.2451Y-3.8445
X5.2783Y-4.1012
X5.2844Y-3.6476
X5.2844Y-3.687
X5.2844Y-3.7264
X5.2844Y-3.7657
X5.2844Y-3.8051
X5.2844Y-3.8445
X5.3238Y-3.6476
X5.3238Y-3.687
X5.3238Y-3.7264
X5.3238Y-3.7657
X5.3238Y-3.8051
X5.3238Y-3.8445
X5.3632Y-3.6476
X5.3632Y-3.687
X5.3632Y-3.7264
X5.3632Y-3.7657
X5.3632Y-3.8051
X5.3632Y-3.8445
X5.3894Y-4.1829
X5.4794Y-5.5029
X5.5141Y-4.178
X5.5512Y-3.7523
X5.6094Y-5.3929
X5.6299Y-4.1732
X5.7028Y-4.3296
X5.7474Y-4.1809
X5.7972Y-4.3307
X5.8071Y-5.0
X5.9494Y-4.4429
X5.9881Y-3.8633
X5.9894Y-4.1829
X6.0128Y-4.3296
X6.063Y-3.8583
X6.0653Y-3.3909
X6.0694Y-3.9829
X6.1024Y-4.4071
X6.1194Y-5.3029
X6.2194Y-5.3929
X7.5827Y-3.0965
T2
X5.9952Y-4.8824
X5.9952Y-4.9324
X5.9952Y-4.9824
T3
X4.6729Y-2.8346
X5.5548Y-2.8346
X4.5862Y-4.4094
X5.4681Y-4.4094
X4.5882Y-4.854
X5.4701Y-4.854
X6.3801Y-4.4176
X6.3801Y-4.5176
X6.3801Y-4.6176
X6.3801Y-4.7176
X6.3801Y-4.8176
X6.3801Y-4.9176
X6.3801Y-5.0176
X6.3801Y-5.1176
X7.1517Y-4.4176
X7.1517Y-4.5176
X7.1517Y-4.6176
X7.1517Y-4.7176
X7.1517Y-4.8176
X7.1517Y-4.9176
X7.1517Y-5.0176
X7.1517Y-5.1176
X4.6713Y-3.2972
X5.5531Y-3.2972
T4
X6.0128Y-4.5703
X6.1128Y-4.5703
X6.2128Y-4.5703
X5.7028Y-4.5703
X5.8028Y-4.5703
X5.9028Y-4.5703
X3.974Y-5.1083
X3.974Y-5.7083
X4.074Y-5.1083
X4.074Y-5.7083
X4.174Y-5.1083
X4.174Y-5.7083
X4.274Y-5.1083
X4.274Y-5.7083
X4.374Y-5.1083
X4.374Y-5.7083
X4.474Y-5.1083
X4.474Y-5.7083
X4.574Y-5.1083
X4.574Y-5.7083
X4.674Y-5.1083
X4.674Y-5.7083
X4.774Y-5.1083
X4.774Y-5.7083
X4.874Y-5.1083
X4.874Y-5.7083
X4.974Y-5.1083
X4.974Y-5.7083
X5.074Y-5.1083
X5.074Y-5.7083
X5.174Y-5.1083
X5.174Y-5.7083
X5.274Y-5.1083
X5.274Y-5.7083
X5.374Y-5.1083
X5.374Y-5.7083
T5
X7.0039Y-5.6358
X6.5294Y-5.3929
X6.6294Y-5.3929
X6.7294Y-5.3929
X6.8294Y-5.3929
X6.9294Y-5.3929
X7.0294Y-5.3929
X4.7384Y-3.5728
X4.7384Y-3.7697
X4.02Y-4.9529
X4.1594Y-3.3929
X4.22Y-4.96
X6.9394Y-3.3129
X4.42Y-4.9529
X6.83Y-5.63
X4.1494Y-4.3329
X4.15Y-2.74
X6.94Y-4.0
X5.66Y-5.67
T6
X4.1584Y-2.9637
X4.1584Y-3.1606
X6.9394Y-3.5629
X6.9394Y-3.7598
X4.1584Y-4.5385
X4.1584Y-4.7354
X4.1584Y-3.7587
X4.1584Y-3.9556
T7
X3.7008Y-2.6378
X4.1165Y-5.8654
X6.9535Y-2.6378
X6.9535Y-5.8654
T0
M30
